<svg width="17" height="16" viewBox="0 0 17 16" fill="none" xmlns="http://www.w3.org/2000/svg">
<path d="M15.9247 15.4667H14.8284C14.8399 15.379 14.8451 15.2896 14.8451 15.2C14.8451 14.4473 14.4067 13.8066 13.7655 13.5099V4.53332C13.7655 4.37332 13.6575 4.26666 13.4956 4.26666H9.44692V0.266657C9.44692 0.106656 9.33896 6.8653e-09 9.17702 6.8653e-09H1.88943C1.72742 -3.12432e-05 1.61946 0.106625 1.61946 0.266626V15.4667H0.2699C0.107954 15.4667 0 15.5733 0 15.7333C0 15.8933 0.107954 16 0.2699 16H1.88936H2.6991H9.17695H14.4942H15.9247C16.0867 16 16.1946 15.8933 16.1946 15.7333C16.1946 15.5733 16.0867 15.4667 15.9247 15.4667ZM13.2256 13.3522C13.1375 13.34 13.0475 13.3333 12.9557 13.3333C12.752 13.3333 12.5521 13.3676 12.3632 13.4317C12.3162 13.3697 12.2404 13.3333 12.146 13.3333C11.984 13.3333 11.8761 13.44 11.8761 13.6V13.6817C11.7738 13.7545 11.6787 13.8376 11.5924 13.9299C11.5787 13.9442 11.5653 13.9586 11.5522 13.9733C11.3285 13.6971 11.0404 13.4972 10.7147 13.4C10.6679 13.3576 10.6034 13.3333 10.5265 13.3333C10.4964 13.3333 10.4682 13.337 10.4422 13.344C10.3812 13.337 10.3193 13.3333 10.2566 13.3333C10.0875 13.3333 9.89698 13.355 9.74266 13.4169C9.72355 13.4232 9.70458 13.4298 9.68579 13.4368C9.49926 13.287 9.28111 13.1792 9.05122 13.1198C9.04879 13.1192 9.04629 13.1187 9.04388 13.1181C9.02383 13.113 9.00371 13.1081 8.9835 13.1038C8.96712 13.1002 8.95054 13.0971 8.934 13.0941C8.92682 13.0927 8.91964 13.0913 8.91243 13.0901C8.89506 13.0872 8.87764 13.0845 8.86008 13.0821C8.85224 13.081 8.84439 13.0801 8.83652 13.0791C8.82042 13.0771 8.80425 13.0753 8.788 13.0738C8.77614 13.0727 8.76424 13.0719 8.75235 13.0711C8.73963 13.0702 8.72695 13.0692 8.71414 13.0686C8.68849 13.0673 8.66284 13.0666 8.63715 13.0666C8.61729 13.0666 8.59758 13.067 8.57797 13.0677C8.56513 13.0682 8.55232 13.0689 8.53951 13.0697C8.53439 13.07 8.5292 13.0702 8.52407 13.0705C8.27818 13.0867 8.03659 13.1552 7.82739 13.2767V4.79998H9.17695H13.2256V13.3522ZM2.1593 0.533314H8.90705V4.26666H7.55749C7.39554 4.26666 7.28759 4.37332 7.28759 4.53332V12.8267C7.14965 12.6904 6.99064 12.5751 6.81753 12.4849C6.80226 12.4768 6.78682 12.469 6.77132 12.4614C6.76522 12.4584 6.75918 12.4553 6.75304 12.4524C6.56041 12.3601 6.3508 12.2996 6.13176 12.2769C6.12869 12.2766 6.12559 12.2763 6.12249 12.276C6.09706 12.2735 6.0715 12.2716 6.04582 12.2701C6.03902 12.2697 6.03222 12.2693 6.02539 12.2689C5.99638 12.2676 5.96728 12.2667 5.93802 12.2667C5.53632 12.2667 5.16416 12.3972 4.85839 12.6166V12.5334C4.85839 12.3734 4.75044 12.2667 4.58849 12.2667C4.42655 12.2667 4.31859 12.3734 4.31859 12.5334V13.0667C4.31859 13.1067 4.32533 13.1434 4.33798 13.1759C4.20545 13.3917 4.11413 13.6349 4.07567 13.8934C3.76494 13.9285 3.4808 14.039 3.23896 14.2041V14.1334C3.23896 13.9734 3.13101 13.8667 2.96906 13.8667C2.80711 13.8667 2.69916 13.9734 2.69916 14.1334V14.6667C2.69916 14.6979 2.70337 14.7269 2.71115 14.7536C2.57732 14.9674 2.48626 15.2094 2.44874 15.4667H2.15936V0.533314H2.1593ZM4.19574 14.4055C4.20109 14.4051 4.20649 14.4047 4.21187 14.4043C4.22611 14.4032 4.24034 14.4022 4.2547 14.4015C4.27586 14.4006 4.29715 14.4 4.31859 14.4C4.48054 14.4 4.58849 14.2933 4.58849 14.1333C4.58849 13.3867 5.18228 12.8 5.93806 12.8C6.61282 12.8 7.17963 13.28 7.26061 13.9466C7.27886 14.0187 7.32219 14.0782 7.38147 14.1177C7.3852 14.1203 7.38903 14.1227 7.39292 14.1251C7.39709 14.1277 7.40124 14.1302 7.40557 14.1325C7.41553 14.138 7.42591 14.1429 7.43672 14.1472C7.43714 14.1474 7.43752 14.1475 7.43793 14.1477C7.45029 14.1526 7.4632 14.1567 7.47652 14.16C7.47655 14.16 7.47655 14.16 7.47658 14.16C7.49265 14.1653 7.5109 14.1673 7.53019 14.1667C7.61891 14.168 7.70144 14.1201 7.74645 14.0534C7.74645 14.0534 7.74648 14.0534 7.74651 14.0533L7.77349 14.0267C7.98943 13.76 8.28631 13.6 8.63722 13.6C8.81947 13.6 9.00163 13.6505 9.16512 13.7448C8.84316 14.0439 8.66059 14.4338 8.63937 14.851C8.63794 14.8782 8.63722 14.9057 8.63722 14.9334C8.63722 15.1188 8.66844 15.2965 8.73021 15.4667H2.99601C3.12234 14.8926 3.60343 14.4587 4.19574 14.4055ZM9.3674 15.4667C9.26428 15.2943 9.20397 15.0906 9.20397 14.9067C9.20397 14.6118 9.32163 14.3461 9.52387 14.1519C9.56252 14.1165 9.60374 14.0838 9.64726 14.0542C9.68943 14.0546 9.73184 14.0459 9.77078 14.0267C10.3646 13.7067 11.0663 14 11.2823 14.5867C11.3093 14.6667 11.3902 14.7467 11.5252 14.7467C11.5508 14.7467 11.5792 14.7386 11.6076 14.7243C11.6754 14.7133 11.7289 14.6642 11.7681 14.5867C11.8727 14.3671 12.0347 14.1917 12.2318 14.0688C12.2743 14.0571 12.3109 14.0364 12.3399 14.0082C12.5253 13.9162 12.7355 13.8667 12.9557 13.8667C13.7115 13.8667 14.3053 14.4533 14.3053 15.2C14.3053 15.28 14.3053 15.3867 14.2783 15.4667H9.3674Z" fill="#BDBDBD"/>
<path d="M8.90698 6.93341C8.74503 6.93341 8.63708 7.04007 8.63708 7.20007V7.73341C8.63708 7.89341 8.74503 8.00007 8.90698 8.00007C9.06892 8.00007 9.17688 7.89341 9.17688 7.73341V7.20007C9.17688 7.04007 9.06892 6.93341 8.90698 6.93341Z" fill="#BDBDBD"/>
<path d="M8.90698 11.7331C8.74503 11.7331 8.63708 11.8397 8.63708 11.9997V12.5331C8.63708 12.6931 8.74503 12.7998 8.90698 12.7998C9.06892 12.7998 9.17688 12.6931 9.17688 12.5331V11.9997C9.17688 11.8397 9.06892 11.7331 8.90698 11.7331Z" fill="#BDBDBD"/>
<path d="M8.90698 8.53333C8.74503 8.53333 8.63708 8.63998 8.63708 8.79998V9.33333C8.63708 9.49333 8.74503 9.59999 8.90698 9.59999C9.06892 9.59999 9.17688 9.49333 9.17688 9.33333V8.79998C9.17688 8.63998 9.06892 8.53333 8.90698 8.53333Z" fill="#BDBDBD"/>
<path d="M8.90698 10.1333C8.74503 10.1333 8.63708 10.24 8.63708 10.4V10.9333C8.63708 11.0933 8.74503 11.2 8.90698 11.2C9.06892 11.2 9.17688 11.0933 9.17688 10.9333V10.4C9.17688 10.24 9.06892 10.1333 8.90698 10.1333Z" fill="#BDBDBD"/>
<path d="M8.90698 5.33307C8.74503 5.33307 8.63708 5.43973 8.63708 5.59973V6.13307C8.63708 6.29307 8.74503 6.39973 8.90698 6.39973C9.06892 6.39973 9.17688 6.29307 9.17688 6.13307V5.59973C9.17688 5.43973 9.06892 5.33307 8.90698 5.33307Z" fill="#BDBDBD"/>
<path d="M10.5269 8.00007C10.6888 8.00007 10.7968 7.89341 10.7968 7.73341V7.20007C10.7968 7.04007 10.6888 6.93341 10.5269 6.93341C10.3649 6.93341 10.257 7.04007 10.257 7.20007V7.73341C10.257 7.89341 10.3649 8.00007 10.5269 8.00007Z" fill="#BDBDBD"/>
<path d="M10.5269 6.39973C10.6888 6.39973 10.7968 6.29307 10.7968 6.13307V5.59973C10.7968 5.43973 10.6888 5.33307 10.5269 5.33307C10.3649 5.33307 10.257 5.43973 10.257 5.59973V6.13307C10.257 6.29307 10.3649 6.39973 10.5269 6.39973Z" fill="#BDBDBD"/>
<path d="M10.5269 9.59999C10.6888 9.59999 10.7968 9.49333 10.7968 9.33333V8.79998C10.7968 8.63998 10.6888 8.53333 10.5269 8.53333C10.3649 8.53333 10.257 8.63998 10.257 8.79998V9.33333C10.257 9.49333 10.3649 9.59999 10.5269 9.59999Z" fill="#BDBDBD"/>
<path d="M10.5269 11.2C10.6888 11.2 10.7968 11.0933 10.7968 10.9333V10.4C10.7968 10.24 10.6888 10.1333 10.5269 10.1333C10.3649 10.1333 10.257 10.24 10.257 10.4V10.9333C10.257 11.0933 10.3649 11.2 10.5269 11.2Z" fill="#BDBDBD"/>
<path d="M10.5269 12.7998C10.6888 12.7998 10.7968 12.6931 10.7968 12.5331V11.9997C10.7968 11.8397 10.6888 11.7331 10.5269 11.7331C10.3649 11.7331 10.257 11.8397 10.257 11.9997V12.5331C10.257 12.6931 10.3649 12.7998 10.5269 12.7998Z" fill="#BDBDBD"/>
<path d="M12.146 9.59999C12.308 9.59999 12.4159 9.49333 12.4159 9.33333V8.79998C12.4159 8.63998 12.308 8.53333 12.146 8.53333C11.9841 8.53333 11.8761 8.63998 11.8761 8.79998V9.33333C11.8761 9.49333 11.9841 9.59999 12.146 9.59999Z" fill="#BDBDBD"/>
<path d="M12.146 8.00007C12.308 8.00007 12.4159 7.89341 12.4159 7.73341V7.20007C12.4159 7.04007 12.308 6.93341 12.146 6.93341C11.9841 6.93341 11.8761 7.04007 11.8761 7.20007V7.73341C11.8761 7.89341 11.9841 8.00007 12.146 8.00007Z" fill="#BDBDBD"/>
<path d="M12.146 12.7998C12.308 12.7998 12.4159 12.6931 12.4159 12.5331V11.9997C12.4159 11.8397 12.308 11.7331 12.146 11.7331C11.9841 11.7331 11.8761 11.8397 11.8761 11.9997V12.5331C11.8761 12.6931 11.9841 12.7998 12.146 12.7998Z" fill="#BDBDBD"/>
<path d="M12.146 11.2C12.308 11.2 12.4159 11.0933 12.4159 10.9333V10.4C12.4159 10.24 12.308 10.1333 12.146 10.1333C11.9841 10.1333 11.8761 10.24 11.8761 10.4V10.9333C11.8761 11.0933 11.9841 11.2 12.146 11.2Z" fill="#BDBDBD"/>
<path d="M12.146 6.39973C12.308 6.39973 12.4159 6.29307 12.4159 6.13307V5.59973C12.4159 5.43973 12.308 5.33307 12.146 5.33307C11.9841 5.33307 11.8761 5.43973 11.8761 5.59973V6.13307C11.8761 6.29307 11.9841 6.39973 12.146 6.39973Z" fill="#BDBDBD"/>
<path d="M2.96929 10.1334C3.13124 10.1334 3.23919 10.0268 3.23919 9.86677V9.33343C3.23919 9.17343 3.13124 9.06677 2.96929 9.06677C2.80735 9.06677 2.69939 9.17343 2.69939 9.33343V9.86677C2.69936 10.0267 2.80735 10.1334 2.96929 10.1334Z" fill="#BDBDBD"/>
<path d="M2.96929 11.7332C3.13124 11.7332 3.23919 11.6265 3.23919 11.4665V10.9332C3.23919 10.7732 3.13124 10.6665 2.96929 10.6665C2.80735 10.6665 2.69939 10.7732 2.69939 10.9332V11.4665C2.69936 11.6265 2.80735 11.7332 2.96929 11.7332Z" fill="#BDBDBD"/>
<path d="M2.96929 13.3331C3.13124 13.3331 3.23919 13.2265 3.23919 13.0665V12.5331C3.23919 12.3731 3.13124 12.2665 2.96929 12.2665C2.80735 12.2665 2.69939 12.3731 2.69939 12.5331V13.0665C2.69936 13.2264 2.80735 13.3331 2.96929 13.3331Z" fill="#BDBDBD"/>
<path d="M2.96929 2.13343C3.13124 2.13343 3.23919 2.02677 3.23919 1.86677V1.33343C3.23919 1.17343 3.13124 1.06677 2.96929 1.06677C2.80735 1.06677 2.69939 1.17343 2.69939 1.33343V1.86677C2.69936 2.02674 2.80735 2.13343 2.96929 2.13343Z" fill="#BDBDBD"/>
<path d="M2.96929 3.73341C3.13124 3.73341 3.23919 3.62675 3.23919 3.46675V2.9334C3.23919 2.7734 3.13124 2.66675 2.96929 2.66675C2.80735 2.66675 2.69939 2.7734 2.69939 2.9334V3.46675C2.69936 3.62672 2.80735 3.73341 2.96929 3.73341Z" fill="#BDBDBD"/>
<path d="M2.96929 5.33314C3.13124 5.33314 3.23919 5.22648 3.23919 5.06648V4.53314C3.23919 4.37314 3.13124 4.26648 2.96929 4.26648C2.80735 4.26648 2.69939 4.37314 2.69939 4.53314V5.06648C2.69936 5.22645 2.80735 5.33314 2.96929 5.33314Z" fill="#BDBDBD"/>
<path d="M2.96929 6.93336C3.13124 6.93336 3.23919 6.8267 3.23919 6.6667V6.13336C3.23919 5.97336 3.13124 5.8667 2.96929 5.8667C2.80735 5.8667 2.69939 5.97336 2.69939 6.13336V6.6667C2.69936 6.82667 2.80735 6.93336 2.96929 6.93336Z" fill="#BDBDBD"/>
<path d="M2.96929 8.53303C3.13124 8.53303 3.23919 8.42637 3.23919 8.26637V7.73303C3.23919 7.57303 3.13124 7.46637 2.96929 7.46637C2.80735 7.46637 2.69939 7.57303 2.69939 7.73303V8.26637C2.69936 8.42634 2.80735 8.53303 2.96929 8.53303Z" fill="#BDBDBD"/>
<path d="M4.58819 3.73341C4.75014 3.73341 4.85809 3.62675 4.85809 3.46675V2.9334C4.85809 2.7734 4.75014 2.66675 4.58819 2.66675C4.42624 2.66675 4.31829 2.7734 4.31829 2.9334V3.46675C4.31826 3.62672 4.42624 3.73341 4.58819 3.73341Z" fill="#BDBDBD"/>
<path d="M4.58819 2.13343C4.75014 2.13343 4.85809 2.02677 4.85809 1.86677V1.33343C4.85809 1.17343 4.75014 1.06677 4.58819 1.06677C4.42624 1.06677 4.31829 1.17343 4.31829 1.33343V1.86677C4.31826 2.02674 4.42624 2.13343 4.58819 2.13343Z" fill="#BDBDBD"/>
<path d="M4.58819 6.93336C4.75014 6.93336 4.85809 6.8267 4.85809 6.6667V6.13336C4.85809 5.97336 4.75014 5.8667 4.58819 5.8667C4.42624 5.8667 4.31829 5.97336 4.31829 6.13336V6.6667C4.31826 6.82667 4.42624 6.93336 4.58819 6.93336Z" fill="#BDBDBD"/>
<path d="M4.58819 5.33314C4.75014 5.33314 4.85809 5.22648 4.85809 5.06648V4.53314C4.85809 4.37314 4.75014 4.26648 4.58819 4.26648C4.42624 4.26648 4.31829 4.37314 4.31829 4.53314V5.06648C4.31826 5.22645 4.42624 5.33314 4.58819 5.33314Z" fill="#BDBDBD"/>
<path d="M4.58819 8.53303C4.75014 8.53303 4.85809 8.42637 4.85809 8.26637V7.73303C4.85809 7.57303 4.75014 7.46637 4.58819 7.46637C4.42624 7.46637 4.31829 7.57303 4.31829 7.73303V8.26637C4.31826 8.42634 4.42624 8.53303 4.58819 8.53303Z" fill="#BDBDBD"/>
<path d="M4.58819 10.1334C4.75014 10.1334 4.85809 10.0268 4.85809 9.86677V9.33343C4.85809 9.17343 4.75014 9.06677 4.58819 9.06677C4.42624 9.06677 4.31829 9.17343 4.31829 9.33343V9.86677C4.31826 10.0267 4.42624 10.1334 4.58819 10.1334Z" fill="#BDBDBD"/>
<path d="M4.58819 11.7332C4.75014 11.7332 4.85809 11.6265 4.85809 11.4665V10.9332C4.85809 10.7732 4.75014 10.6665 4.58819 10.6665C4.42624 10.6665 4.31829 10.7732 4.31829 10.9332V11.4665C4.31826 11.6265 4.42624 11.7332 4.58819 11.7332Z" fill="#BDBDBD"/>
<path d="M6.20734 5.33314C6.36928 5.33314 6.47723 5.22648 6.47723 5.06648V4.53314C6.47723 4.37314 6.36928 4.26648 6.20734 4.26648C6.04539 4.26648 5.93744 4.37314 5.93744 4.53314V5.06648C5.9374 5.22645 6.04539 5.33314 6.20734 5.33314Z" fill="#BDBDBD"/>
<path d="M6.20734 3.73341C6.36928 3.73341 6.47723 3.62675 6.47723 3.46675V2.9334C6.47723 2.7734 6.36928 2.66675 6.20734 2.66675C6.04539 2.66675 5.93744 2.7734 5.93744 2.9334V3.46675C5.9374 3.62672 6.04539 3.73341 6.20734 3.73341Z" fill="#BDBDBD"/>
<path d="M6.20734 2.13343C6.36928 2.13343 6.47723 2.02677 6.47723 1.86677V1.33343C6.47723 1.17343 6.36928 1.06677 6.20734 1.06677C6.04539 1.06677 5.93744 1.17343 5.93744 1.33343V1.86677C5.9374 2.02674 6.04539 2.13343 6.20734 2.13343Z" fill="#BDBDBD"/>
<path d="M6.20734 11.7332C6.36928 11.7332 6.47723 11.6265 6.47723 11.4665V10.9332C6.47723 10.7732 6.36928 10.6665 6.20734 10.6665C6.04539 10.6665 5.93744 10.7732 5.93744 10.9332V11.4665C5.9374 11.6265 6.04539 11.7332 6.20734 11.7332Z" fill="#BDBDBD"/>
<path d="M6.20734 10.1334C6.36928 10.1334 6.47723 10.0268 6.47723 9.86677V9.33343C6.47723 9.17343 6.36928 9.06677 6.20734 9.06677C6.04539 9.06677 5.93744 9.17343 5.93744 9.33343V9.86677C5.9374 10.0267 6.04539 10.1334 6.20734 10.1334Z" fill="#BDBDBD"/>
<path d="M6.20734 8.53303C6.36928 8.53303 6.47723 8.42637 6.47723 8.26637V7.73303C6.47723 7.57303 6.36928 7.46637 6.20734 7.46637C6.04539 7.46637 5.93744 7.57303 5.93744 7.73303V8.26637C5.9374 8.42634 6.04539 8.53303 6.20734 8.53303Z" fill="#BDBDBD"/>
<path d="M6.20734 6.93336C6.36928 6.93336 6.47723 6.8267 6.47723 6.6667V6.13336C6.47723 5.97336 6.36928 5.8667 6.20734 5.8667C6.04539 5.8667 5.93744 5.97336 5.93744 6.13336V6.6667C5.9374 6.82667 6.04539 6.93336 6.20734 6.93336Z" fill="#BDBDBD"/>
<path d="M7.82747 3.73341C7.98941 3.73341 8.09737 3.62675 8.09737 3.46675V2.9334C8.09737 2.7734 7.98941 2.66675 7.82747 2.66675C7.66552 2.66675 7.55757 2.7734 7.55757 2.9334V3.46675C7.55754 3.62672 7.66552 3.73341 7.82747 3.73341Z" fill="#BDBDBD"/>
<path d="M7.82747 2.13343C7.98941 2.13343 8.09737 2.02677 8.09737 1.86677V1.33343C8.09737 1.17343 7.98941 1.06677 7.82747 1.06677C7.66552 1.06677 7.55757 1.17343 7.55757 1.33343V1.86677C7.55754 2.02674 7.66552 2.13343 7.82747 2.13343Z" fill="#BDBDBD"/>
</svg>
