<svg width="25" height="25" viewBox="0 0 25 25" fill="none" xmlns="http://www.w3.org/2000/svg">
<path d="M12.9518 0.5C6.32867 0.5 0.959473 5.87266 0.959473 12.5C0.959473 19.1273 6.32867 24.5 12.9518 24.5C19.5748 24.5 24.944 19.1273 24.944 12.5C24.9366 5.87578 19.5717 0.507422 12.9518 0.5ZM12.9518 23.7C6.77018 23.7 1.75896 18.6855 1.75896 12.5C1.75896 6.31445 6.77018 1.3 12.9518 1.3C19.1333 1.3 24.1445 6.31445 24.1445 12.5C24.1375 18.6826 19.1304 23.693 12.9518 23.7Z" fill="#EA4E1B"/>
<path d="M12.9528 2.50098C7.43353 2.50098 2.95929 6.97813 2.95929 12.501C2.95929 18.0238 7.43353 22.501 12.9528 22.501C18.4721 22.501 22.9463 18.0238 22.9463 12.501C22.9401 6.98067 18.4695 2.50723 12.9528 2.50098ZM12.9528 21.701C7.87504 21.701 3.75877 17.582 3.75877 12.501C3.75877 7.41993 7.87504 3.30098 12.9528 3.30098C18.0306 3.30098 22.1468 7.41993 22.1468 12.501C22.1412 17.5797 18.0282 21.6953 12.9528 21.701Z" fill="#EA4E1B"/>
<path d="M18.8386 6.60794C18.7113 6.48098 18.5152 6.45462 18.3588 6.54348L11.2222 10.6191C11.2179 10.622 11.2159 10.6267 11.2114 10.6292C11.1658 10.6685 11.123 10.7112 11.0836 10.7571C11.0811 10.7614 11.0764 10.7636 11.0736 10.7679L6.99929 17.9091C6.91009 18.0657 6.93663 18.2626 7.0639 18.3901C7.19135 18.5175 7.3881 18.544 7.54464 18.4548L14.6801 14.3792C14.6844 14.3763 14.6864 14.3716 14.6909 14.369C14.7365 14.3298 14.7793 14.287 14.8187 14.2411C14.8212 14.2368 14.8259 14.2347 14.8287 14.2304L18.903 7.09036C18.993 6.93352 18.9666 6.73567 18.8386 6.60794ZM8.41967 17.0335L11.5081 11.6212L13.8307 13.9431L8.41967 17.0335ZM14.3942 13.3792L12.0757 11.0591L17.4846 7.96867L14.3942 13.3792Z" fill="#EA4E1B"/>
<path d="M6.55649 12.0986H4.95751C4.73676 12.0986 4.55777 12.2777 4.55777 12.4986C4.55777 12.7195 4.73676 12.8986 4.95751 12.8986H6.55649C6.77725 12.8986 6.95624 12.7195 6.95624 12.4986C6.95624 12.2777 6.77725 12.0986 6.55649 12.0986Z" fill="#EA4E1B"/>
<path d="M20.9467 12.0986H19.3477C19.1269 12.0986 18.9479 12.2777 18.9479 12.4986C18.9479 12.7195 19.1269 12.8986 19.3477 12.8986H20.9467C21.1674 12.8986 21.3464 12.7195 21.3464 12.4986C21.3464 12.2777 21.1674 12.0986 20.9467 12.0986Z" fill="#EA4E1B"/>
<path d="M12.9504 6.50058C13.1712 6.50058 13.3502 6.32148 13.3502 6.10058V4.50058C13.3502 4.27969 13.1712 4.10059 12.9504 4.10059C12.7296 4.10059 12.5507 4.27969 12.5507 4.50058V6.10058C12.5507 6.32148 12.7296 6.50058 12.9504 6.50058Z" fill="#EA4E1B"/>
<path d="M12.9504 18.5C12.7296 18.5 12.5507 18.6791 12.5507 18.9V20.5C12.5507 20.7209 12.7296 20.9 12.9504 20.9C13.1712 20.9 13.3502 20.7209 13.3502 20.5V18.9C13.3502 18.6791 13.1712 18.5 12.9504 18.5Z" fill="#EA4E1B"/>
</svg>
