<svg width="64" height="64" viewBox="0 0 64 64" fill="none" xmlns="http://www.w3.org/2000/svg">
<path d="M27 41.0002C26.4067 41.0002 25.8266 41.1761 25.3333 41.5058C24.8399 41.8354 24.4554 42.304 24.2284 42.8521C24.0013 43.4003 23.9419 44.0035 24.0576 44.5855C24.1734 45.1674 24.4591 45.7019 24.8787 46.1215C25.2982 46.5411 25.8328 46.8268 26.4147 46.9425C26.9967 47.0583 27.5999 46.9989 28.148 46.7718C28.6962 46.5448 29.1648 46.1602 29.4944 45.6669C29.8241 45.1735 30 44.5935 30 44.0002C30 43.2045 29.6839 42.4415 29.1213 41.8789C28.5587 41.3163 27.7956 41.0002 27 41.0002ZM27 45.0002C26.8022 45.0002 26.6089 44.9415 26.4444 44.8317C26.28 44.7218 26.1518 44.5656 26.0761 44.3829C26.0004 44.2001 25.9806 43.9991 26.0192 43.8051C26.0578 43.6111 26.153 43.4329 26.2929 43.2931C26.4327 43.1532 26.6109 43.058 26.8049 43.0194C26.9989 42.9808 27.2 43.0006 27.3827 43.0763C27.5654 43.152 27.7216 43.2802 27.8315 43.4446C27.9414 43.6091 28 43.8024 28 44.0002C28 44.2654 27.8946 44.5198 27.7071 44.7073C27.5196 44.8948 27.2652 45.0002 27 45.0002Z" fill="#EA4E1B"/>
<path d="M51 41.0002C50.4067 41.0002 49.8266 41.1761 49.3333 41.5058C48.8399 41.8354 48.4554 42.304 48.2284 42.8521C48.0013 43.4003 47.9419 44.0035 48.0576 44.5855C48.1734 45.1674 48.4591 45.7019 48.8787 46.1215C49.2982 46.5411 49.8328 46.8268 50.4147 46.9425C50.9967 47.0583 51.5999 46.9989 52.148 46.7718C52.6962 46.5448 53.1648 46.1602 53.4944 45.6669C53.8241 45.1735 54 44.5935 54 44.0002C54 43.2045 53.6839 42.4415 53.1213 41.8789C52.5587 41.3163 51.7957 41.0002 51 41.0002ZM51 45.0002C50.8022 45.0002 50.6089 44.9415 50.4444 44.8317C50.28 44.7218 50.1518 44.5656 50.0761 44.3829C50.0004 44.2001 49.9806 43.9991 50.0192 43.8051C50.0578 43.6111 50.153 43.4329 50.2929 43.2931C50.4327 43.1532 50.6109 43.058 50.8049 43.0194C50.9989 42.9808 51.2 43.0006 51.3827 43.0763C51.5654 43.152 51.7216 43.2802 51.8315 43.4446C51.9414 43.6091 52 43.8024 52 44.0002C52 44.2654 51.8946 44.5198 51.7071 44.7073C51.5196 44.8948 51.2652 45.0002 51 45.0002Z" fill="#EA4E1B"/>
<path d="M58.9999 28.9999H56.7339C56.1801 29.0032 55.638 29.1591 55.1671 29.4506C54.6962 29.742 54.3148 30.1577 54.0649 30.6519C53.5207 28.2062 52.1616 26.018 50.2106 24.446C48.2596 22.874 45.8324 22.0115 43.3269 21.9999H34.6729C32.1674 22.0115 29.7402 22.874 27.7892 24.446C25.8381 26.018 24.4791 28.2062 23.9349 30.6519C23.6849 30.1577 23.3036 29.742 22.8327 29.4506C22.3618 29.1591 21.8197 29.0032 21.2659 28.9999H18.9999C18.2042 28.9999 17.4412 29.3159 16.8786 29.8786C16.3159 30.4412 15.9999 31.2042 15.9999 31.9999V32.9999C15.9999 33.7955 16.3159 34.5586 16.8786 35.1212C17.4412 35.6838 18.2042 35.9999 18.9999 35.9999H20.5859L21.1709 36.5849C20.4669 36.9485 19.8594 37.4743 19.3985 38.1188C18.9376 38.7633 18.6364 39.5081 18.5199 40.2919L17.6629 46.2919C17.5684 46.9497 17.6062 47.6199 17.774 48.2629C17.9419 48.906 18.2364 49.5091 18.6403 50.0369C19.0442 50.5647 19.5494 51.0066 20.1263 51.3366C20.7032 51.6666 21.3402 51.8782 21.9999 51.9589V52.9999C21.9999 53.7955 22.316 54.5586 22.8786 55.1212C23.4412 55.6838 24.2042 55.9999 24.9999 55.9999H28.9999C29.7955 55.9999 30.5586 55.6838 31.1212 55.1212C31.6838 54.5586 31.9999 53.7955 31.9999 52.9999V51.9999H45.9999V52.9999C45.9999 53.7955 46.316 54.5586 46.8786 55.1212C47.4412 55.6838 48.2042 55.9999 48.9999 55.9999H52.9999C53.7955 55.9999 54.5586 55.6838 55.1212 55.1212C55.6838 54.5586 55.9999 53.7955 55.9999 52.9999V51.9589C56.6596 51.8782 57.2966 51.6666 57.8735 51.3366C58.4503 51.0066 58.9556 50.5647 59.3595 50.0369C59.7634 49.5091 60.0579 48.906 60.2258 48.2629C60.3936 47.6199 60.4314 46.9497 60.3369 46.2919L59.4799 40.2919C59.3634 39.5081 59.0622 38.7633 58.6013 38.1188C58.1404 37.4743 57.5329 36.9485 56.8289 36.5849L57.4139 35.9999H58.9999C59.7955 35.9999 60.5586 35.6838 61.1212 35.1212C61.6838 34.5586 61.9999 33.7955 61.9999 32.9999V31.9999C61.9999 31.2042 61.6838 30.4412 61.1212 29.8786C60.5586 29.3159 59.7955 28.9999 58.9999 28.9999ZM25.7629 31.7279C26.078 29.5869 27.1502 27.6298 28.785 26.2119C30.4198 24.7939 32.5088 24.0091 34.6729 23.9999H43.3269C45.4909 24.0091 47.5799 24.7939 49.2147 26.2119C50.8496 27.6298 51.9218 29.5869 52.2369 31.7279L52.8469 35.9999H25.1529L25.7629 31.7279ZM18.9999 33.9999C18.7347 33.9999 18.4803 33.8945 18.2928 33.707C18.1052 33.5194 17.9999 33.2651 17.9999 32.9999V31.9999C17.9999 31.7347 18.1052 31.4803 18.2928 31.2928C18.4803 31.1052 18.7347 30.9999 18.9999 30.9999H21.2659C21.5065 31.0001 21.739 31.0871 21.9206 31.2449C22.1023 31.4027 22.221 31.6207 22.2549 31.8589L22.7549 35.3379L21.7099 34.2929C21.6167 34.1997 21.506 34.1258 21.3841 34.0755C21.2623 34.0252 21.1317 33.9995 20.9999 33.9999H18.9999ZM29.9999 52.9999C29.9999 53.2651 29.8945 53.5194 29.707 53.707C29.5195 53.8945 29.2651 53.9999 28.9999 53.9999H24.9999C24.7347 53.9999 24.4803 53.8945 24.2928 53.707C24.1052 53.5194 23.9999 53.2651 23.9999 52.9999V51.9999H29.9999V52.9999ZM53.9999 52.9999C53.9999 53.2651 53.8945 53.5194 53.707 53.707C53.5195 53.8945 53.2651 53.9999 52.9999 53.9999H48.9999C48.7347 53.9999 48.4803 53.8945 48.2928 53.707C48.1052 53.5194 47.9999 53.2651 47.9999 52.9999V51.9999H53.9999V52.9999ZM58.3579 46.5759C58.4186 47.0014 58.3872 47.4349 58.2659 47.8472C58.1445 48.2595 57.9359 48.6409 57.6542 48.9656C57.3726 49.2903 57.0245 49.5507 56.6335 49.7291C56.2425 49.9076 55.8177 49.9999 55.3879 49.9999H22.6119C22.1821 49.9999 21.7573 49.9076 21.3663 49.7291C20.9753 49.5507 20.6272 49.2903 20.3455 48.9656C20.0639 48.6409 19.8553 48.2595 19.7339 47.8472C19.6125 47.4349 19.5811 47.0014 19.6419 46.5759L20.4989 40.5759C20.6039 39.8622 20.9613 39.2099 21.5063 38.7372C22.0512 38.2646 22.7475 38.003 23.4689 37.9999H54.5309C55.2522 38.003 55.9486 38.2646 56.4935 38.7372C57.0384 39.2099 57.3959 39.8622 57.5009 40.5759L58.3579 46.5759ZM59.9999 32.9999C59.9999 33.2651 59.8945 33.5194 59.707 33.707C59.5195 33.8945 59.2651 33.9999 58.9999 33.9999H56.9999C56.7347 33.9999 56.4804 34.1053 56.2929 34.2929L55.2479 35.3379L55.7479 31.8579C55.782 31.6204 55.9003 31.403 56.0813 31.2455C56.2623 31.088 56.4939 31.0008 56.7339 30.9999H58.9999C59.2651 30.9999 59.5195 31.1052 59.707 31.2928C59.8945 31.4803 59.9999 31.7347 59.9999 31.9999V32.9999Z" fill="#EA4E1B"/>
<path d="M45.0001 42.0002H33.0001C32.8417 42.0001 32.6855 42.0378 32.5444 42.1099C32.4033 42.1821 32.2815 42.2868 32.1888 42.4153C32.0961 42.5438 32.0353 42.6925 32.0114 42.8491C31.9874 43.0058 32.001 43.1659 32.0511 43.3162L33.0511 46.3162C33.1175 46.5154 33.2448 46.6887 33.4152 46.8114C33.5855 46.9342 33.7902 47.0002 34.0001 47.0002H44.0001C44.2101 47.0002 44.4147 46.9342 44.5851 46.8114C44.7554 46.6887 44.8828 46.5154 44.9491 46.3162L45.9491 43.3162C45.9992 43.1659 46.0128 43.0058 45.9889 42.8491C45.965 42.6925 45.9042 42.5438 45.8115 42.4153C45.7188 42.2868 45.5969 42.1821 45.4558 42.1099C45.3148 42.0378 45.1586 42.0001 45.0001 42.0002ZM43.2791 45.0002H34.7211L34.3871 44.0002H43.6131L43.2791 45.0002Z" fill="#EA4E1B"/>
<path d="M13 47.184V20H19C19.2652 20 19.5196 19.8946 19.7071 19.7071C19.8946 19.5196 20 19.2652 20 19V1C20 0.734784 19.8946 0.48043 19.7071 0.292893C19.5196 0.105357 19.2652 0 19 0H3C2.73478 0 2.48043 0.105357 2.29289 0.292893C2.10536 0.48043 2 0.734784 2 1V19C2 19.2652 2.10536 19.5196 2.29289 19.7071C2.48043 19.8946 2.73478 20 3 20H8V47.184C7.41709 47.3901 6.91209 47.7712 6.55409 48.2753C6.19608 48.7794 6.00256 49.3817 6 50V55C6 55.2652 6.10536 55.5196 6.29289 55.7071C6.48043 55.8946 6.73478 56 7 56H14C14.2652 56 14.5196 55.8946 14.7071 55.7071C14.8946 55.5196 15 55.2652 15 55V50C14.9974 49.3817 14.8039 48.7794 14.4459 48.2753C14.0879 47.7712 13.5829 47.3901 13 47.184ZM4 2H18V18H4V2ZM11 20V47H10V20H11ZM13 54H8V50C8 49.7348 8.10536 49.4804 8.29289 49.2929C8.48043 49.1054 8.73478 49 9 49H12C12.2652 49 12.5196 49.1054 12.7071 49.2929C12.8946 49.4804 13 49.7348 13 50V54Z" fill="#EA4E1B"/>
<path d="M10.0001 15V12H12.0001C13.061 12 14.0784 11.5786 14.8285 10.8284C15.5787 10.0783 16.0001 9.06087 16.0001 8C16.0001 6.93913 15.5787 5.92172 14.8285 5.17157C14.0784 4.42143 13.061 4 12.0001 4H9.00012C8.73491 4 8.48055 4.10536 8.29302 4.29289C8.10548 4.48043 8.00012 4.73478 8.00012 5V15C8.00012 15.2652 8.10548 15.5196 8.29302 15.7071C8.48055 15.8946 8.73491 16 9.00012 16C9.26534 16 9.51969 15.8946 9.70723 15.7071C9.89477 15.5196 10.0001 15.2652 10.0001 15ZM10.0001 6H12.0001C12.5306 6 13.0393 6.21071 13.4143 6.58579C13.7894 6.96086 14.0001 7.46957 14.0001 8C14.0001 8.53043 13.7894 9.03914 13.4143 9.41421C13.0393 9.78929 12.5306 10 12.0001 10H10.0001V6Z" fill="#EA4E1B"/>
<path d="M34.7065 26.2927C34.519 26.1053 34.2646 25.9999 33.9995 25.9999C33.7343 25.9999 33.48 26.1053 33.2925 26.2927L28.2925 31.2927C28.197 31.385 28.1208 31.4953 28.0684 31.6173C28.016 31.7393 27.9884 31.8705 27.9872 32.0033C27.9861 32.1361 28.0114 32.2678 28.0616 32.3907C28.1119 32.5136 28.1862 32.6252 28.2801 32.7191C28.374 32.813 28.4856 32.8873 28.6085 32.9375C28.7314 32.9878 28.8631 33.0131 28.9959 33.012C29.1287 33.0108 29.2599 32.9832 29.3819 32.9308C29.5039 32.8784 29.6142 32.8022 29.7065 32.7067L34.7065 27.7067C34.894 27.5192 34.9993 27.2649 34.9993 26.9997C34.9993 26.7346 34.894 26.4803 34.7065 26.2927Z" fill="#EA4E1B"/>
<path d="M38.2925 26.2924L33.2925 31.2924C33.197 31.3847 33.1208 31.495 33.0684 31.617C33.016 31.739 32.9884 31.8702 32.9872 32.003C32.9861 32.1358 33.0114 32.2675 33.0616 32.3904C33.1119 32.5133 33.1862 32.6249 33.2801 32.7188C33.374 32.8127 33.4856 32.887 33.6085 32.9372C33.7314 32.9875 33.8631 33.0128 33.9959 33.0117C34.1287 33.0105 34.2599 32.9829 34.3819 32.9305C34.5039 32.8781 34.6142 32.8019 34.7065 32.7064L39.7065 27.7064C39.8886 27.5178 39.9894 27.2652 39.9871 27.003C39.9849 26.7408 39.8797 26.49 39.6943 26.3046C39.5089 26.1192 39.2581 26.014 38.9959 26.0118C38.7337 26.0095 38.4811 26.1103 38.2925 26.2924Z" fill="#EA4E1B"/>
</svg>
