<svg width="16" height="16" viewBox="0 0 16 16" fill="none" xmlns="http://www.w3.org/2000/svg">
<path d="M6.7505 10.25C6.60217 10.25 6.45716 10.294 6.33383 10.3764C6.21049 10.4588 6.11436 10.5759 6.05759 10.713C6.00083 10.85 5.98598 11.0008 6.01491 11.1463C6.04385 11.2918 6.11528 11.4254 6.22017 11.5303C6.32506 11.6352 6.4587 11.7067 6.60419 11.7356C6.74967 11.7645 6.90047 11.7497 7.03752 11.6929C7.17456 11.6361 7.29169 11.54 7.37411 11.4167C7.45652 11.2933 7.5005 11.1483 7.5005 11C7.5005 10.8011 7.42149 10.6103 7.28083 10.4697C7.14018 10.329 6.94942 10.25 6.7505 10.25ZM6.7505 11.25C6.70106 11.25 6.65272 11.2353 6.61161 11.2079C6.5705 11.1804 6.53846 11.1414 6.51953 11.0957C6.50061 11.05 6.49566 10.9997 6.50531 10.9512C6.51495 10.9027 6.53876 10.8582 6.57373 10.8232C6.60869 10.7883 6.65324 10.7645 6.70173 10.7548C6.75023 10.7452 6.80049 10.7501 6.84617 10.769C6.89186 10.788 6.9309 10.82 6.95837 10.8611C6.98584 10.9022 7.0005 10.9506 7.0005 11C7.0005 11.0663 6.97416 11.1299 6.92728 11.1768C6.8804 11.2237 6.81681 11.25 6.7505 11.25Z" fill="#BDBDBD"/>
<path d="M12.7505 10.25C12.6021 10.25 12.4571 10.294 12.3338 10.3764C12.2104 10.4588 12.1143 10.5759 12.0575 10.713C12.0008 10.85 11.9859 11.0008 12.0149 11.1463C12.0438 11.2918 12.1152 11.4254 12.2201 11.5303C12.325 11.6352 12.4586 11.7067 12.6041 11.7356C12.7496 11.7645 12.9004 11.7497 13.0375 11.6929C13.1745 11.6361 13.2916 11.54 13.3741 11.4167C13.4565 11.2933 13.5005 11.1483 13.5005 11C13.5005 10.8011 13.4214 10.6103 13.2808 10.4697C13.1401 10.329 12.9494 10.25 12.7505 10.25ZM12.7505 11.25C12.701 11.25 12.6527 11.2353 12.6116 11.2079C12.5704 11.1804 12.5384 11.1414 12.5195 11.0957C12.5006 11.05 12.4956 10.9997 12.5053 10.9512C12.5149 10.9027 12.5387 10.8582 12.5737 10.8232C12.6086 10.7883 12.6532 10.7645 12.7017 10.7548C12.7502 10.7452 12.8004 10.7501 12.8461 10.769C12.8918 10.788 12.9308 10.82 12.9583 10.8611C12.9858 10.9022 13.0005 10.9506 13.0005 11C13.0005 11.0663 12.9741 11.1299 12.9272 11.1768C12.8803 11.2237 12.8168 11.25 12.7505 11.25Z" fill="#BDBDBD"/>
<path d="M14.7505 7.25H14.184C14.0456 7.25082 13.91 7.28981 13.7923 7.36267C13.6746 7.43554 13.5792 7.53946 13.5168 7.663C13.3807 7.05158 13.0409 6.50452 12.5532 6.11152C12.0654 5.71852 11.4586 5.5029 10.8323 5.5H8.66876C8.04238 5.5029 7.43558 5.71852 6.94783 6.11152C6.46007 6.50452 6.12032 7.05158 5.98426 7.663C5.92177 7.53946 5.82643 7.43554 5.70871 7.36267C5.59099 7.28981 5.45545 7.25082 5.31701 7.25H4.75051C4.55159 7.25 4.36083 7.32902 4.22018 7.46967C4.07952 7.61032 4.00051 7.80109 4.00051 8V8.25C4.00051 8.44891 4.07952 8.63968 4.22018 8.78033C4.36083 8.92098 4.55159 9 4.75051 9H5.14701L5.29326 9.14625C5.11726 9.23716 4.96538 9.3686 4.85015 9.52973C4.73493 9.69085 4.65964 9.87706 4.63051 10.073L4.41626 11.573C4.39264 11.7375 4.40208 11.905 4.44404 12.0658C4.486 12.2265 4.55963 12.3773 4.66061 12.5093C4.76159 12.6412 4.88789 12.7517 5.03212 12.8342C5.17634 12.9167 5.33558 12.9696 5.50051 12.9897V13.25C5.50051 13.4489 5.57952 13.6397 5.72018 13.7803C5.86083 13.921 6.05159 14 6.25051 14H7.25051C7.44942 14 7.64019 13.921 7.78084 13.7803C7.92149 13.6397 8.00051 13.4489 8.00051 13.25V13H11.5005V13.25C11.5005 13.4489 11.5795 13.6397 11.7202 13.7803C11.8608 13.921 12.0516 14 12.2505 14H13.2505C13.4494 14 13.6402 13.921 13.7808 13.7803C13.9215 13.6397 14.0005 13.4489 14.0005 13.25V12.9897C14.1654 12.9696 14.3247 12.9167 14.4689 12.8342C14.6131 12.7517 14.7394 12.6412 14.8404 12.5093C14.9414 12.3773 15.015 12.2265 15.057 12.0658C15.0989 11.905 15.1084 11.7375 15.0848 11.573L14.8705 10.073C14.8414 9.87706 14.7661 9.69085 14.6509 9.52973C14.5356 9.3686 14.3838 9.23716 14.2078 9.14625L14.354 9H14.7505C14.9494 9 15.1402 8.92098 15.2808 8.78033C15.4215 8.63968 15.5005 8.44891 15.5005 8.25V8C15.5005 7.80109 15.4215 7.61032 15.2808 7.46967C15.1402 7.32902 14.9494 7.25 14.7505 7.25ZM6.44126 7.932C6.52003 7.39675 6.78809 6.90748 7.19679 6.553C7.6055 6.19851 8.12775 6.00231 8.66876 6H10.8323C11.3733 6.00231 11.8955 6.19851 12.3042 6.553C12.7129 6.90748 12.981 7.39675 13.0598 7.932L13.2123 9H6.28876L6.44126 7.932ZM4.75051 8.5C4.6842 8.5 4.62061 8.47366 4.57373 8.42678C4.52685 8.37989 4.50051 8.3163 4.50051 8.25V8C4.50051 7.9337 4.52685 7.87011 4.57373 7.82322C4.62061 7.77634 4.6842 7.75 4.75051 7.75H5.31701C5.37716 7.75006 5.43528 7.77181 5.48069 7.81125C5.52611 7.8507 5.55578 7.9052 5.56426 7.96475L5.68926 8.8345L5.42801 8.57325C5.40471 8.54994 5.37703 8.53147 5.34657 8.5189C5.31611 8.50633 5.28346 8.49991 5.25051 8.5H4.75051ZM7.50051 13.25C7.50051 13.3163 7.47417 13.3799 7.42728 13.4268C7.3804 13.4737 7.31681 13.5 7.25051 13.5H6.25051C6.1842 13.5 6.12061 13.4737 6.07373 13.4268C6.02685 13.3799 6.00051 13.3163 6.00051 13.25V13H7.50051V13.25ZM13.5005 13.25C13.5005 13.3163 13.4742 13.3799 13.4273 13.4268C13.3804 13.4737 13.3168 13.5 13.2505 13.5H12.2505C12.1842 13.5 12.1206 13.4737 12.0737 13.4268C12.0268 13.3799 12.0005 13.3163 12.0005 13.25V13H13.5005V13.25ZM14.59 11.644C14.6052 11.7504 14.5973 11.8588 14.567 11.9618C14.5366 12.0649 14.4845 12.1603 14.4141 12.2414C14.3437 12.3226 14.2567 12.3877 14.1589 12.4323C14.0612 12.4769 13.955 12.5 13.8475 12.5H5.65351C5.54606 12.5 5.43986 12.4769 5.34211 12.4323C5.24435 12.3877 5.15733 12.3226 5.08692 12.2414C5.01651 12.1603 4.96437 12.0649 4.93402 11.9618C4.90367 11.8588 4.89582 11.7504 4.91101 11.644L5.12526 10.144C5.15151 9.96558 5.24087 9.80249 5.3771 9.68433C5.51334 9.56617 5.68742 9.50077 5.86776 9.5H13.6333C13.8136 9.50077 13.9877 9.56617 14.1239 9.68433C14.2601 9.80249 14.3495 9.96558 14.3758 10.144L14.59 11.644ZM15.0005 8.25C15.0005 8.3163 14.9742 8.37989 14.9273 8.42678C14.8804 8.47366 14.8168 8.5 14.7505 8.5H14.2505C14.1842 8.50001 14.1206 8.52636 14.0738 8.57325L13.8125 8.8345L13.9375 7.9645C13.946 7.90512 13.9756 7.85078 14.0209 7.8114C14.0661 7.77203 14.124 7.75023 14.184 7.75H14.7505C14.8168 7.75 14.8804 7.77634 14.9273 7.82322C14.9742 7.87011 15.0005 7.9337 15.0005 8V8.25Z" fill="#BDBDBD"/>
<path d="M11.2503 10.5H8.25027C8.21066 10.5 8.17161 10.5094 8.13635 10.5274C8.10108 10.5455 8.07061 10.5716 8.04744 10.6038C8.02427 10.6359 8.00907 10.6731 8.00308 10.7122C7.9971 10.7514 8.00051 10.7914 8.01302 10.829L8.26302 11.579C8.27961 11.6288 8.31145 11.6721 8.35404 11.7028C8.39662 11.7335 8.44778 11.75 8.50027 11.75H11.0003C11.0528 11.75 11.1039 11.7335 11.1465 11.7028C11.1891 11.6721 11.2209 11.6288 11.2375 11.579L11.4875 10.829C11.5 10.7914 11.5034 10.7514 11.4975 10.7122C11.4915 10.6731 11.4763 10.6359 11.4531 10.6038C11.4299 10.5716 11.3995 10.5455 11.3642 10.5274C11.3289 10.5094 11.2899 10.5 11.2503 10.5ZM10.82 11.25H8.68052L8.59702 11H10.9035L10.82 11.25Z" fill="#BDBDBD"/>
<path d="M3.25027 11.796V5H4.75027C4.81657 5 4.88016 4.97366 4.92705 4.92678C4.97393 4.87989 5.00027 4.8163 5.00027 4.75V0.25C5.00027 0.183696 4.97393 0.120107 4.92705 0.0732234C4.88016 0.0263393 4.81657 0 4.75027 0H0.750271C0.683967 0 0.620378 0.0263393 0.573494 0.0732234C0.52661 0.120107 0.500271 0.183696 0.500271 0.25V4.75C0.500271 4.8163 0.52661 4.87989 0.573494 4.92678C0.620378 4.97366 0.683967 5 0.750271 5H2.00027V11.796C1.85454 11.8475 1.72829 11.9428 1.63879 12.0688C1.54929 12.1948 1.50091 12.3454 1.50027 12.5V13.75C1.50027 13.8163 1.52661 13.8799 1.57349 13.9268C1.62038 13.9737 1.68397 14 1.75027 14H3.50027C3.56657 14 3.63016 13.9737 3.67705 13.9268C3.72393 13.8799 3.75027 13.8163 3.75027 13.75V12.5C3.74963 12.3454 3.70125 12.1948 3.61175 12.0688C3.52225 11.9428 3.396 11.8475 3.25027 11.796ZM1.00027 0.5H4.50027V4.5H1.00027V0.5ZM2.75027 5V11.75H2.50027V5H2.75027ZM3.25027 13.5H2.00027V12.5C2.00027 12.4337 2.02661 12.3701 2.07349 12.3232C2.12038 12.2763 2.18397 12.25 2.25027 12.25H3.00027C3.06657 12.25 3.13016 12.2763 3.17705 12.3232C3.22393 12.3701 3.25027 12.4337 3.25027 12.5V13.5Z" fill="#BDBDBD"/>
<path d="M2.50001 3.75V3H3.00001C3.26523 3 3.51958 2.89464 3.70712 2.70711C3.89465 2.51957 4.00001 2.26522 4.00001 2C4.00001 1.73478 3.89465 1.48043 3.70712 1.29289C3.51958 1.10536 3.26523 1 3.00001 1H2.25001C2.18371 1 2.12012 1.02634 2.07323 1.07322C2.02635 1.12011 2.00001 1.1837 2.00001 1.25V3.75C2.00001 3.8163 2.02635 3.87989 2.07323 3.92678C2.12012 3.97366 2.18371 4 2.25001 4C2.31632 4 2.3799 3.97366 2.42679 3.92678C2.47367 3.87989 2.50001 3.8163 2.50001 3.75ZM2.50001 1.5H3.00001C3.13262 1.5 3.2598 1.55268 3.35356 1.64645C3.44733 1.74021 3.50001 1.86739 3.50001 2C3.50001 2.13261 3.44733 2.25979 3.35356 2.35355C3.2598 2.44732 3.13262 2.5 3.00001 2.5H2.50001V1.5Z" fill="#BDBDBD"/>
<path d="M8.6772 6.57326C8.63031 6.52639 8.56674 6.50006 8.50045 6.50006C8.43415 6.50006 8.37058 6.52639 8.32369 6.57326L7.07369 7.82326C7.04982 7.84632 7.03077 7.87391 7.01767 7.90441C7.00457 7.93491 6.99767 7.96771 6.99738 8.00091C6.99709 8.0341 7.00342 8.06702 7.01599 8.09775C7.02856 8.12847 7.04712 8.15638 7.0706 8.17986C7.09407 8.20333 7.12198 8.22189 7.15271 8.23446C7.18343 8.24703 7.21635 8.25336 7.24954 8.25307C7.28274 8.25278 7.31554 8.24589 7.34605 8.23278C7.37655 8.21968 7.40413 8.20064 7.42719 8.17676L8.6772 6.92676C8.72406 6.87988 8.75039 6.8163 8.75039 6.75001C8.75039 6.68372 8.72406 6.62014 8.6772 6.57326Z" fill="#BDBDBD"/>
<path d="M9.57356 6.57329L8.32356 7.82329C8.29968 7.84635 8.28063 7.87394 8.26753 7.90444C8.25443 7.93494 8.24753 7.96774 8.24724 8.00094C8.24696 8.03413 8.25328 8.06705 8.26585 8.09778C8.27842 8.1285 8.29698 8.15641 8.32046 8.17989C8.34393 8.20336 8.37184 8.22192 8.40257 8.23449C8.43329 8.24706 8.46621 8.25339 8.49941 8.2531C8.5326 8.25281 8.56541 8.24592 8.59591 8.23281C8.62641 8.21971 8.65399 8.20067 8.67706 8.17679L9.92706 6.92679C9.97259 6.87964 9.99779 6.81649 9.99722 6.75094C9.99665 6.68539 9.97036 6.62269 9.92401 6.57634C9.87766 6.52998 9.81496 6.50369 9.74941 6.50312C9.68386 6.50255 9.62071 6.52775 9.57356 6.57329Z" fill="#BDBDBD"/>
</svg>
