<svg width="9" height="9" viewBox="0 0 9 9" fill="none" xmlns="http://www.w3.org/2000/svg">
<path d="M4.63526 4.39718L8.25263 0.586457C8.37998 0.452293 8.37998 0.234771 8.25263 0.100624C8.12527 -0.033524 7.91878 -0.0335412 7.79144 0.100624L4.17406 3.91134L0.556703 0.100624C0.429345 -0.0335412 0.22286 -0.0335412 0.0955183 0.100624C-0.0318231 0.234788 -0.0318394 0.45231 0.0955183 0.586457L3.71288 4.39716L0.0955183 8.20788C-0.0318394 8.34204 -0.0318394 8.55956 0.0955183 8.69371C0.159189 8.76078 0.242654 8.79431 0.326119 8.79431C0.409584 8.79431 0.493032 8.76078 0.556719 8.69371L4.17406 4.88301L7.79142 8.69371C7.8551 8.76078 7.93856 8.79431 8.02203 8.79431C8.10549 8.79431 8.18894 8.76078 8.25263 8.69371C8.37998 8.55955 8.37998 8.34202 8.25263 8.20788L4.63526 4.39718Z" fill="#EA4E1B"/>
</svg>
