<svg width="12" height="14" viewBox="0 0 12 14" fill="none" xmlns="http://www.w3.org/2000/svg">
<mask id="mask0_3133_2268" style="mask-type:alpha" maskUnits="userSpaceOnUse" x="0" y="0" width="12" height="14">
<path fill-rule="evenodd" clip-rule="evenodd" d="M0 0.341064H11.3681V13.5767H0V0.341064Z" fill="white"/>
</mask>
<g mask="url(#mask0_3133_2268)">
<path fill-rule="evenodd" clip-rule="evenodd" d="M3.04871 1.34106C1.94405 1.34106 1.02671 2.23573 1.00071 3.33906V10.4851C0.976712 11.6191 1.87005 12.5524 2.99338 12.5771H8.38205C9.49471 12.5371 10.3754 11.6191 10.368 10.4884V4.55973L7.27871 1.34106H3.05671H3.04871ZM3.05671 13.5771H2.97271C1.29805 13.5411 -0.0352878 12.1491 0.000712187 10.4744V3.32706C0.0400455 1.67306 1.40538 0.341064 3.04671 0.341064H3.05871H7.49138C7.62738 0.341064 7.75738 0.396398 7.85205 0.494398L11.2294 4.0124C11.318 4.10506 11.368 4.22973 11.368 4.3584V10.4851C11.3787 12.1577 10.0747 13.5171 8.39938 13.5771H3.05671Z" fill="#EA4E1B"/>
</g>
<path fill-rule="evenodd" clip-rule="evenodd" d="M10.8654 4.9895H9.02938C7.80872 4.98616 6.81738 3.9915 6.81738 2.77283V0.833496C6.81738 0.557496 7.04138 0.333496 7.31738 0.333496C7.59338 0.333496 7.81738 0.557496 7.81738 0.833496V2.77283C7.81738 3.44216 8.36138 3.9875 9.03072 3.9895H10.8654C11.1414 3.9895 11.3654 4.2135 11.3654 4.4895C11.3654 4.7655 11.1414 4.9895 10.8654 4.9895Z" fill="#EA4E1B"/>
<path fill-rule="evenodd" clip-rule="evenodd" d="M5.42871 10.1334C5.15271 10.1334 4.92871 9.90941 4.92871 9.63341V5.60608C4.92871 5.33008 5.15271 5.10608 5.42871 5.10608C5.70471 5.10608 5.92871 5.33008 5.92871 5.60608V9.63341C5.92871 9.90941 5.70471 10.1334 5.42871 10.1334Z" fill="#EA4E1B"/>
<path fill-rule="evenodd" clip-rule="evenodd" d="M5.42718 10.1328C5.29451 10.1328 5.16651 10.0802 5.07318 9.98549L3.50984 8.41616C3.31518 8.22016 3.31584 7.90349 3.51118 7.70882C3.70718 7.51416 4.02384 7.51416 4.21851 7.71016L5.42718 8.92482L6.63584 7.71016C6.83051 7.51416 7.14718 7.51416 7.34318 7.70882C7.53851 7.90349 7.53918 8.22016 7.34451 8.41616L5.78118 9.98549C5.68784 10.0802 5.55984 10.1328 5.42718 10.1328Z" fill="#EA4E1B"/>
</svg>
