<svg width="20" height="14" viewBox="0 0 20 14" fill="none" xmlns="http://www.w3.org/2000/svg">
<path d="M19.0221 0.955078L13.2988 6.68027L19.0221 12.4055C19.1256 12.1877 19.1884 11.947 19.1884 11.69V1.67051C19.1884 1.41345 19.1256 1.1728 19.0221 0.955078Z" fill="#EDE9E9"/>
<path d="M17.5303 0H1.97621C1.72089 0 1.48187 0.0631971 1.26562 0.167363L8.58056 7.49507C9.22735 8.14626 10.2791 8.14626 10.9259 7.49507L18.2408 0.167363C18.0246 0.0631971 17.7856 0 17.5303 0Z" fill="#EDE9E9"/>
<path d="M0.482636 0.955078C0.379176 1.1728 0.316406 1.41345 0.316406 1.67051V11.69C0.316406 11.9471 0.379176 12.1878 0.482636 12.4055L6.20593 6.68027L0.482636 0.955078Z" fill="#EDE9E9"/>
<path d="M12.5176 7.4668L11.7077 8.2822C10.63 9.36725 8.87642 9.36725 7.79873 8.2822L6.98889 7.4668L1.26562 13.192C1.48187 13.2962 1.72089 13.3594 1.97621 13.3594H17.5303C17.7856 13.3594 18.0246 13.2962 18.2408 13.192L12.5176 7.4668Z" fill="#EDE9E9"/>
</svg>
