<svg width="16" height="16" viewBox="0 0 16 16" fill="none" xmlns="http://www.w3.org/2000/svg">
<path d="M15.6666 4.66679H13.3333V0.973628L13.858 0.606321C14.0084 0.500854 14.0455 0.293169 13.9394 0.14214C13.8339 -0.00888865 13.6263 -0.0453568 13.4752 0.0607666L0.14197 9.39394C-0.00843556 9.49941 -0.0455291 9.70709 0.0605954 9.85812C0.125033 9.95056 0.228563 10.0001 0.333376 10.0001C0.399782 10.0001 0.466187 9.98053 0.524781 9.9395L2.00003 8.90682V12.6667H1.00003C0.81578 12.6667 0.666687 12.8158 0.666687 13C0.666687 13.1843 0.81578 13.3334 1.00003 13.3334H1.33337V15.6667C1.33337 15.8509 1.48246 16 1.66671 16H15.6667C15.8509 16 16 15.8509 16 15.6667V5.00013C16 4.81588 15.8509 4.66679 15.6666 4.66679ZM2.66668 8.44017L12.6666 1.44028V4.66679H11.6666C11.4824 4.66679 11.3333 4.81588 11.3333 5.00013C11.3333 5.18438 11.4824 5.33347 11.6666 5.33347H12V6.66679H9C8.81575 6.66679 8.66665 6.81589 8.66665 7.00013C8.66665 7.18438 8.81575 7.33347 9 7.33347H9.33334V8.6668H6.33335C6.1491 8.6668 6.00001 8.81589 6.00001 9.00013C6.00001 9.18438 6.1491 9.33347 6.33335 9.33347H6.66669V10.6668H3.66671C3.48246 10.6668 3.33336 10.8159 3.33336 11.0001C3.33336 11.1844 3.48246 11.3335 3.66671 11.3335H4.00005V12.6668H2.66668V8.44017Z" fill="#BDBDBD"/>
</svg>
