<svg width="16" height="16" viewBox="0 0 16 16" fill="none" xmlns="http://www.w3.org/2000/svg">
<g clip-path="url(#clip0_2365_17943)">
<path d="M16 3.30432V12.6956C16 13.5617 15.3009 14.2609 14.4348 14.2609H1.56522C0.699125 14.2609 0 13.5617 0 12.6956V3.30432C0 3.27651 0 3.24867 0.00346875 3.22085C0.0452188 2.42085 0.681719 1.78432 1.48172 1.7426C1.50953 1.73914 1.53737 1.73914 1.56519 1.73914H14.4347C14.4626 1.73914 14.4939 1.73914 14.5217 1.7426C15.3183 1.78435 15.9548 2.42085 15.9965 3.21739C16 3.2452 16 3.27651 16 3.30432Z" fill="#E6F3FF"/>
<path d="M14.5218 1.74248C14.4939 1.73901 14.4627 1.73901 14.4348 1.73901H8V14.2608H14.4348C15.3009 14.2608 16 13.5616 16 12.6955V3.30423C16 3.27642 16 3.24511 15.9965 3.21726C15.9548 2.42076 15.3183 1.78423 14.5218 1.74248Z" fill="#CFDBE6"/>
<path d="M15.9965 3.21749C15.9548 2.42096 15.3183 1.78446 14.5218 1.74271C11.9653 4.29911 10.5297 5.73474 8 8.26443C7.04034 7.30421 2.42531 2.68627 1.48175 1.74268C0.68175 1.78443 0.0452188 2.42093 0.0035 3.22093C0 3.24877 0 3.27661 0 3.30443V12.6957C0 13.5618 0.699125 14.261 1.56522 14.261H2.08697V5.30443L7.26263 10.4766C7.46438 10.6818 7.73219 10.7827 8.00003 10.7827C8.26784 10.7827 8.53569 10.6818 8.73744 10.4766L13.9131 5.30096V14.261H14.4348C15.3009 14.261 16.0001 13.5618 16.0001 12.6957V3.30443C16 3.27661 16 3.2453 15.9965 3.21749Z" fill="#FF4B26"/>
<path d="M8.73738 10.4766L13.913 5.30096V14.261H14.4348C15.3009 14.261 16 13.5618 16 12.6957V3.30443C16 3.27661 16 3.2453 15.9965 3.21746C15.9548 2.42093 15.3183 1.78443 14.5218 1.74268C11.9653 4.29911 10.5297 5.73474 8 8.26443V10.7827C8.26781 10.7827 8.53566 10.6818 8.73738 10.4766Z" fill="#D93F21"/>
</g>
<defs>
<clipPath id="clip0_2365_17943">
<rect width="16" height="16" fill="white"/>
</clipPath>
</defs>
</svg>
