<svg width="67" height="64" viewBox="0 0 67 64" fill="none" xmlns="http://www.w3.org/2000/svg">
<path d="M65.651 43.411C64.3878 41.689 61.8439 41.2331 59.9815 42.394L57.2713 44.0764V4.74538H57.4678C58.1815 4.74538 58.762 4.20687 58.762 3.54487V1.2005C58.762 0.5385 58.1815 0 57.4678 0H51.1731C50.6287 0 50.1874 0.409375 50.1874 0.91425C50.1874 1.41913 50.6288 1.8285 51.1731 1.8285H56.7906V2.91663H29.1137V1.8285H45.0005C45.5449 1.8285 45.9861 1.41913 45.9861 0.91425C45.9861 0.409375 45.5448 0 45.0003 0H28.4365C27.7228 0 27.1423 0.5385 27.1423 1.2005V3.54487C27.1423 4.20687 27.7228 4.74538 28.4365 4.74538H28.9371V16.4893H26.913V14.2325C26.913 13.4467 26.2238 12.8075 25.3768 12.8075H17.934C17.0869 12.8075 16.3977 13.4467 16.3977 14.2325V16.4891H14.9813C14.101 16.4891 13.3848 17.1534 13.3848 17.9699V38.938C12.9676 38.9134 12.5492 38.9001 12.1298 38.9001H10.5762V38.4249C10.5762 36.651 9.02032 35.2079 7.10773 35.2079H4.11067C2.19822 35.2079 0.642212 36.651 0.642212 38.4249V51.4811C0.642212 51.9861 1.08357 52.3954 1.62789 52.3954C2.17221 52.3954 2.61356 51.986 2.61356 51.4811V38.4249C2.61356 37.6594 3.2851 37.0365 4.11054 37.0365H7.10759C7.93303 37.0365 8.60457 37.6594 8.60457 38.4249V58.997C8.60457 59.7625 7.93303 60.3854 7.10759 60.3854H4.11067C3.28524 60.3854 2.6137 59.7625 2.6137 58.997V57.2031C2.6137 56.6981 2.17234 56.2889 1.62802 56.2889C1.0837 56.2889 0.642347 56.6982 0.642347 57.2031V58.997C0.642347 60.7709 2.19822 62.214 4.11081 62.214H7.10786C9.02032 62.214 10.5763 60.7708 10.5763 58.997V58.9449L24.2258 63.7391C24.2525 63.7485 24.2796 63.7567 24.3071 63.764C24.9068 63.9211 25.5062 64 26.1002 64C26.4231 64 26.7444 63.9766 27.0633 63.93C27.0636 63.93 27.0642 63.9299 27.0652 63.9297L47.2128 61.236C47.2178 61.2354 47.2226 61.2346 47.2276 61.2339C48.9499 60.9788 50.5745 60.3036 51.9261 59.2812C51.9383 59.272 51.9504 59.2624 51.9622 59.2525L64.9843 48.3891C66.5189 47.125 66.8055 44.985 65.651 43.411ZM30.9085 4.74538H55.2999V45.3003L47.0983 50.3914L44.3486 50.2482L44.2785 49.5952C44.2272 49.1156 44.1113 48.6543 43.9388 48.2189C43.8812 48.0737 43.8175 47.9315 43.7478 47.7924C43.6431 47.5837 43.525 47.3823 43.3945 47.1888C43.0857 46.7316 42.707 46.3197 42.2717 45.9652H45.042C45.7302 45.9652 46.2902 45.4459 46.2902 44.8074V40.4943C46.2902 39.8559 45.7302 39.3365 45.042 39.3365H41.1668C40.4785 39.3365 39.9186 39.8559 39.9186 40.4943V44.7869C39.6695 44.7231 39.4139 44.6732 39.1523 44.6389C39.1439 44.6377 39.1355 44.6367 39.127 44.6359L38.5852 44.578V40.4941C38.5852 39.8558 38.0253 39.3363 37.3369 39.3363H33.4617C32.7734 39.3363 32.2135 39.8556 32.2135 40.4941V43.8976L30.9085 43.7584V4.74538ZM41.8898 44.1366V41.1652H44.3184V44.1366H41.8898ZM36.6136 41.1651V44.1366H34.4496L34.1848 44.1084V41.1651H36.6136ZM18.3691 14.6361H24.9415V16.4891H18.3691V14.6361ZM15.3561 18.3178H28.9371V21.177H17.8046C17.1673 21.177 16.6489 21.6579 16.6489 22.249V25.0096C16.6489 25.6007 17.1673 26.0816 17.8046 26.0816H28.9371V28.6539H17.8046C17.1673 28.6539 16.6489 29.1348 16.6489 29.7259V32.4864C16.6489 33.0775 17.1673 33.5584 17.8046 33.5584H28.9371V36.1306H17.8046C17.1673 36.1306 16.6489 36.6115 16.6489 37.2026V39.3855C16.4815 39.3494 16.3134 39.3156 16.1447 39.2834C16.0652 39.2681 15.9857 39.2536 15.9059 39.2393C15.8126 39.2225 15.719 39.2067 15.6253 39.1912C15.5356 39.1763 15.4461 39.1602 15.3561 39.1465V18.3178ZM28.9371 23.0056V24.253H18.6203V23.0056H28.9371ZM28.9371 30.4824V31.7297H18.6203V30.4824H28.9371ZM18.6203 39.2066V37.9593H28.9371V39.2066H18.6203ZM28.9371 41.0353V43.5479L28.6334 43.5154C27.9965 43.4314 27.3691 43.3155 26.7514 43.1704C25.554 42.889 24.3948 42.4945 23.2836 41.9879C23.1359 41.9205 22.9895 41.8507 22.8435 41.7794C22.6052 41.663 22.3691 41.5421 22.1356 41.4154C21.9636 41.322 21.79 41.2323 21.6158 41.144C21.5781 41.1249 21.5403 41.106 21.5024 41.0872C21.4678 41.07 21.4333 41.0522 21.3987 41.0353H28.9371ZM63.6706 47.0256L50.6621 57.8775C49.5849 58.6875 48.293 59.223 46.9237 59.427L26.776 62.1208C26.7715 62.1214 26.7532 62.124 26.7489 62.1246C26.1461 62.213 25.5182 62.1759 24.8821 62.0144L10.5762 56.9895V40.7289H12.1296C12.8444 40.7289 13.5564 40.771 14.2624 40.85C14.4058 40.866 14.5487 40.8836 14.6913 40.9027C14.712 40.9055 14.7326 40.9085 14.7533 40.9114C15.1135 40.9609 15.4705 41.021 15.8245 41.09C15.9346 41.1116 16.0448 41.1334 16.1545 41.1569C16.2094 41.1686 16.264 41.181 16.3187 41.1931C16.4617 41.2251 16.6044 41.2584 16.7466 41.2938C16.7722 41.3001 16.7979 41.3063 16.8235 41.3128C17.9372 41.5944 19.0215 41.9762 20.0598 42.4539C20.0908 42.4681 20.1216 42.4826 20.1525 42.4971C20.2846 42.5588 20.4157 42.6222 20.5462 42.6869C20.5859 42.7066 20.6258 42.726 20.6654 42.746C20.8224 42.8254 20.9786 42.9064 21.1332 42.9902C21.1355 42.9915 21.1378 42.9926 21.1401 42.9939C21.559 43.2211 21.9849 43.4335 22.4174 43.6306C24.2912 44.4849 26.2873 45.0545 28.3696 45.3278C28.3781 45.3289 28.3864 45.3299 28.3949 45.3307L29.8101 45.4819L30.9626 45.605L33.6206 45.8889L34.2801 45.9594C34.2803 45.9594 34.2804 45.9594 34.2805 45.9594L38.8876 46.4514C40.7237 46.6974 42.1329 48.0631 42.3166 49.7764L42.3508 50.095L23.8743 48.4248C23.3308 48.3756 22.8504 48.7435 22.7975 49.2461C22.7449 49.7487 23.1412 50.1959 23.6831 50.2449L43.2702 52.0156C43.3113 52.0228 43.3531 52.0284 43.3958 52.0305L47.3171 52.2346C47.3355 52.2356 47.354 52.236 47.3723 52.236C47.3919 52.236 47.411 52.2331 47.4305 52.232C47.4529 52.2307 47.4752 52.23 47.4973 52.2274C47.5256 52.224 47.5533 52.2183 47.5812 52.2126C47.603 52.2082 47.625 52.2048 47.6463 52.199C47.676 52.191 47.7047 52.1802 47.7334 52.1696C47.7516 52.163 47.7702 52.1577 47.7878 52.1501C47.8336 52.1304 47.8781 52.1076 47.9206 52.0814L56.8338 46.5485L56.834 46.5484L61.0796 43.9129C62.0463 43.3104 63.3659 43.5468 64.021 44.4399C64.6199 45.2561 64.4713 46.3661 63.6706 47.0256Z" fill="#EA4E1B"/>
</svg>
