<svg width="73" height="58" viewBox="0 0 73 58" fill="none" xmlns="http://www.w3.org/2000/svg">
<path d="M56.0488 47.3466H70.1521C71.4699 47.3466 72.5417 46.0332 72.5417 44.4188V27.4712C72.5417 25.8566 71.4697 24.5432 70.1521 24.5432H64.281C63.6995 24.5432 63.2282 25.1206 63.2282 25.8332C63.2282 26.5458 63.6995 27.1232 64.281 27.1232H70.1521C70.3087 27.1232 70.436 27.2793 70.436 27.4712V44.4188C70.436 44.6106 70.3087 44.7666 70.1521 44.7666H34.9899C34.8332 44.7666 34.7059 44.6106 34.7059 44.4188V27.4712C34.7059 27.2793 34.8332 27.1232 34.9899 27.1232H60.2099C60.7915 27.1232 61.2627 26.5458 61.2627 25.8332C61.2627 25.1206 60.7915 24.5432 60.2099 24.5432H47.1226V21.0066L48.6475 21.8349C49.5022 22.2995 50.5052 21.8251 50.8843 20.7781L52.531 16.2268C52.7148 15.7196 52.7261 15.1553 52.5631 14.6375C52.4002 14.1198 52.0823 13.711 51.6686 13.4863L40.5728 7.45925C40.041 7.16994 39.419 7.46441 39.1836 8.1156C38.9479 8.76697 39.1878 9.52911 39.7192 9.81772L50.4398 15.6408L49.1258 19.2723L27.0988 7.30754C26.8271 7.16014 26.517 7.16014 26.2453 7.30754L4.2185 19.2724L2.90455 15.641L26.0152 3.08767C26.4327 2.86063 26.9114 2.86098 27.3291 3.08767L35.6484 7.60648C36.1797 7.89544 36.802 7.60132 37.0376 6.95013C37.2733 6.29876 37.0334 5.53662 36.5019 5.24801L28.1826 0.729198C27.2228 0.208035 26.1217 0.207691 25.1616 0.729198L17.208 5.04952V2.07493C17.208 1.11672 16.5716 0.337036 15.7896 0.337036H11.3898C10.6077 0.337036 9.9714 1.11672 9.9714 2.07493V8.97991L1.67609 13.486C1.26197 13.7108 0.944147 14.1198 0.781167 14.6374C0.618186 15.1549 0.629557 15.7194 0.813173 16.2265L2.45997 20.7776C2.64344 21.2848 2.97713 21.6743 3.39953 21.874C3.5976 21.9675 3.8041 22.0141 4.01018 22.0141C4.24363 22.0141 4.47666 21.9541 4.69664 21.8347L6.22158 21.0064V30.1245C6.22158 30.8371 6.69283 31.4145 7.27443 31.4145C7.85602 31.4145 8.32727 30.8371 8.32727 30.1245V19.8626L26.6722 9.89788L45.0172 19.8626V24.5431H34.99C33.6723 24.5431 32.6003 25.8566 32.6003 27.471V44.4186C32.6003 46.0332 33.6724 47.3464 34.99 47.3464H45.0172V55.0519H32.3312V45.8025C32.3312 44.1911 31.2612 42.8801 29.946 42.8801H23.3986C22.0834 42.8801 21.0134 44.1911 21.0134 45.8025V55.0519H12.7001C13.566 53.7741 14.0517 52.1492 14.0517 50.4746C14.0517 48.7095 13.5227 47.0141 12.5621 45.7C12.5281 45.6534 12.5127 45.5915 12.5238 45.5457C12.6677 44.9501 12.7279 44.3311 12.7026 43.7055C12.5914 40.9421 10.7397 38.647 8.48674 38.4806C8.43354 38.4769 8.38048 38.4741 8.32755 38.4726V35.1127C8.32755 34.4001 7.8563 33.8227 7.27471 33.8227C6.69311 33.8227 6.22186 34.4001 6.22186 35.1127V39.0345C5.82697 39.2736 5.45848 39.5864 5.12718 39.9686C4.22805 41.006 3.71229 42.4687 3.71229 43.9816C3.71229 44.4943 3.76999 45.0026 3.88398 45.4917C3.8931 45.5311 3.90868 45.6312 3.8545 45.7054C2.79814 47.1529 2.27537 49.0217 2.38234 50.9676C2.46727 52.5128 2.95775 53.9273 3.72338 55.0519H1.72017C1.13857 55.0519 0.667319 55.6293 0.667319 56.3419C0.667319 57.0545 1.13857 57.6319 1.72017 57.6319H71.4888C72.0704 57.6319 72.5417 57.0545 72.5417 56.3419C72.5417 55.6293 72.0704 55.0519 71.4888 55.0519H66.267L67.285 53.8045C67.6962 53.3006 67.6962 52.4839 67.285 51.9801C66.8737 51.4765 66.2072 51.4765 65.796 51.9801L64.0531 54.1159L62.9901 52.8133C62.5788 52.3097 61.9123 52.3097 61.5011 52.8133C61.0899 53.3173 61.0899 54.1339 61.5011 54.6377L61.8391 55.0519H56.0489V47.3466H56.0488ZM12.0771 2.91705H15.1023V6.19298L12.0771 7.83628V2.91705ZM5.4238 47.4252C5.94573 46.7102 6.12696 45.7231 5.90867 44.7845C5.84817 44.5251 5.81771 44.2551 5.81771 43.9816C5.81771 43.1651 6.08499 42.4071 6.57042 41.8469C8.05746 40.1318 10.5001 41.3647 10.599 43.8328C10.6127 44.1672 10.5806 44.4971 10.5043 44.8129V44.8134C10.287 45.7128 10.4745 46.7124 10.9935 47.4218C11.6074 48.2616 11.9456 49.3459 11.9456 50.4746C11.9456 51.7572 11.5239 52.9457 10.7582 53.8216C8.4619 56.4477 4.69299 54.6184 4.48284 50.7942C4.41419 49.5472 4.74844 48.3507 5.4238 47.4252ZM47.1227 47.3466H49.0932V55.0521H47.1227V47.3466ZM23.1189 55.0521V45.8027C23.1189 45.6139 23.2444 45.4603 23.3984 45.4603H29.9459C30.1 45.4603 30.2254 45.614 30.2254 45.8027V55.0521H23.1189ZM51.1989 55.0521V47.3466H53.9431V55.0521H51.1989Z" fill="#EA4E1B"/>
<path d="M14.2334 39.3251H20.3058C21.2411 39.3251 22.0019 38.3928 22.0019 37.2469V29.9769C22.0019 27.7364 20.5142 25.9135 18.6857 25.9135H15.8537C14.025 25.9135 12.5373 27.7364 12.5373 29.9769V37.2469C12.5373 38.3928 13.2982 39.3251 14.2334 39.3251ZM14.643 29.9769C14.643 29.159 15.1861 28.4936 15.8537 28.4936H18.6857C19.3532 28.4936 19.8962 29.159 19.8962 29.9769V36.745H14.643V29.9769Z" fill="#EA4E1B"/>
<path d="M28.1258 20.1687C28.7074 20.1687 29.1787 19.5912 29.1787 18.8786C29.1787 18.166 28.7074 17.5886 28.1258 17.5886H25.2203C24.6387 17.5886 24.1675 18.166 24.1675 18.8786C24.1675 19.5912 24.6387 20.1687 25.2203 20.1687H28.1258Z" fill="#EA4E1B"/>
<path d="M56.3849 29.8917C55.8033 29.8917 55.332 30.4691 55.332 31.1817V40.6993C55.332 41.3271 55.701 41.864 56.2059 41.9706C56.2809 41.9866 56.3359 41.9981 57.2116 41.9981C57.6288 41.9981 58.2323 41.9954 59.1132 41.9894C59.6948 41.9854 60.1634 41.4045 60.1601 40.6921C60.1569 39.9821 59.6862 39.4093 59.1074 39.4093C58.7652 39.4114 58.1673 39.4157 57.4377 39.4171V31.1817C57.4377 30.4691 56.9665 29.8917 56.3849 29.8917Z" fill="#EA4E1B"/>
<path d="M61.2009 31.3319V31.3328V40.4168C61.2009 41.332 61.7101 41.8569 62.269 41.8569H62.2729C62.3375 41.8566 63.8619 41.8495 64.4713 41.8365C66.7999 41.7866 68.49 39.3091 68.49 35.945C68.49 32.4088 66.8426 30.0331 64.3904 30.0331H62.2537C61.6719 30.0331 61.1997 30.6123 61.2008 31.3257C61.2009 31.3257 61.2009 31.3278 61.2009 31.3319ZM64.3906 32.6132C66.2406 32.6132 66.3844 35.1635 66.3844 35.945C66.3844 37.5727 65.7815 39.2281 64.4345 39.2568C64.1759 39.2623 63.7353 39.2669 63.3183 39.2702C63.3155 38.1862 63.3121 36.6969 63.3121 35.9349C63.3121 35.2966 63.31 33.7419 63.3086 32.6132H64.3906Z" fill="#EA4E1B"/>
<path d="M40.4134 39.4171C39.6632 39.4171 38.9422 39.0478 38.4844 38.4288C38.0939 37.901 37.4282 37.8611 36.9971 38.3391C36.5664 38.8177 36.5335 39.6335 36.9239 40.1615C37.7868 41.328 39.0587 41.9971 40.4132 41.9971C42.0909 41.9971 43.5003 40.6818 43.7644 38.8694C43.9637 37.5017 43.4612 35.7168 41.4526 34.8091C40.5116 34.3838 39.6345 33.9209 39.3508 33.7689C39.1796 33.5922 39.1857 33.3502 39.1977 33.2486C39.2151 33.0993 39.3049 32.7341 39.7592 32.5664C40.8119 32.177 41.7947 33.1256 41.8241 33.1543C42.2689 33.6061 42.929 33.5339 43.3014 32.9909C43.6755 32.4455 43.6181 31.6317 43.173 31.1733C43.0982 31.0965 41.3176 29.2966 39.1518 30.0959C38.048 30.5034 37.2667 31.5708 37.1133 32.8818C36.9688 34.1144 37.4049 35.3002 38.2512 35.9762C38.2978 36.0135 38.3467 36.046 38.3974 36.0737C38.4424 36.0983 39.5156 36.6836 40.7236 37.2295C40.9746 37.3431 41.7863 37.7638 41.6914 38.4159C41.6198 38.9081 41.1223 39.4171 40.4134 39.4171Z" fill="#EA4E1B"/>
<path d="M44.4927 35.9445C44.4927 39.282 46.7087 41.9973 49.4327 41.9973C52.1566 41.9973 54.3727 39.282 54.3727 35.9445C54.3727 32.607 52.1566 29.8917 49.4327 29.8917C46.7087 29.8917 44.4927 32.607 44.4927 35.9445ZM52.267 35.9445C52.267 37.8594 50.9954 39.4172 49.4327 39.4172C47.87 39.4172 46.5984 37.8592 46.5984 35.9445C46.5984 34.0298 47.87 32.4718 49.4327 32.4718C50.9954 32.4718 52.267 34.0296 52.267 35.9445Z" fill="#EA4E1B"/>
</svg>
