<svg width="64" height="64" viewBox="0 0 64 64" fill="none" xmlns="http://www.w3.org/2000/svg">
<g clip-path="url(#clip0_1285_14543)">
<path d="M18.1333 36.2666H20.2666V38.3999H18.1333V36.2666Z" fill="#EA4E1B"/>
<path d="M22.4001 36.2666H24.5335V38.3999H22.4001V36.2666Z" fill="#EA4E1B"/>
<path d="M26.6667 36.2666H28.8001V38.3999H26.6667V36.2666Z" fill="#EA4E1B"/>
<path d="M18.1333 40.5332H20.2666V42.6665H18.1333V40.5332Z" fill="#EA4E1B"/>
<path d="M22.4001 40.5332H24.5335V42.6665H22.4001V40.5332Z" fill="#EA4E1B"/>
<path d="M26.6667 40.5332H28.8001V42.6665H26.6667V40.5332Z" fill="#EA4E1B"/>
<path d="M30.9333 40.5332H33.0667V42.6665H30.9333V40.5332Z" fill="#EA4E1B"/>
<path d="M35.2 40.5332H37.3333V42.6665H35.2V40.5332Z" fill="#EA4E1B"/>
<path d="M18.1333 44.8003H20.2666V46.9336H18.1333V44.8003Z" fill="#EA4E1B"/>
<path d="M22.4001 44.7998H24.5335V46.9331H22.4001V44.7998Z" fill="#EA4E1B"/>
<path d="M26.6667 44.7998H28.8001V46.9331H26.6667V44.7998Z" fill="#EA4E1B"/>
<path d="M30.9333 44.7998H33.0667V46.9331H30.9333V44.7998Z" fill="#EA4E1B"/>
<path d="M35.2 44.7998H37.3333V46.9331H35.2V44.7998Z" fill="#EA4E1B"/>
<path d="M18.1333 49.0664H20.2666V51.1997H18.1333V49.0664Z" fill="#EA4E1B"/>
<path d="M22.4001 49.0664H24.5335V51.1997H22.4001V49.0664Z" fill="#EA4E1B"/>
<path d="M26.6667 49.0664H28.8001V51.1997H26.6667V49.0664Z" fill="#EA4E1B"/>
<path d="M30.9333 49.0664H33.0667V51.1997H30.9333V49.0664Z" fill="#EA4E1B"/>
<path d="M35.2 49.0664H37.3333V51.1997H35.2V49.0664Z" fill="#EA4E1B"/>
<path d="M18.1328 53.3335H20.2661V55.4668H18.1328V53.3335Z" fill="#EA4E1B"/>
<path d="M22.4001 53.3335H24.5335V55.4668H22.4001V53.3335Z" fill="#EA4E1B"/>
<path d="M26.6667 53.3335H28.8001V55.4668H26.6667V53.3335Z" fill="#EA4E1B"/>
<path d="M30.9333 53.3335H33.0667V55.4668H30.9333V53.3335Z" fill="#EA4E1B"/>
<path d="M35.2 53.3335H37.3333V55.4668H35.2V53.3335Z" fill="#EA4E1B"/>
<path d="M18.1328 57.6001H20.2661V59.7334H18.1328V57.6001Z" fill="#EA4E1B"/>
<path d="M22.4001 57.6001H24.5335V59.7334H22.4001V57.6001Z" fill="#EA4E1B"/>
<path d="M26.6667 57.6001H28.8001V59.7334H26.6667V57.6001Z" fill="#EA4E1B"/>
<path d="M30.9333 57.6001H33.0667V59.7334H30.9333V57.6001Z" fill="#EA4E1B"/>
<path d="M35.2 57.6001H37.3333V59.7334H35.2V57.6001Z" fill="#EA4E1B"/>
<path d="M62.9329 3.20047H55.4663V1.06715C55.4663 0.478089 54.9887 0.000488281 54.3996 0.000488281H43.733C43.144 0.000488281 42.6664 0.478089 42.6664 1.06715V3.20047H1.06666C0.477601 3.20047 0 3.67807 0 4.26712V8.53376C0 9.12334 0.477601 9.60042 1.06666 9.60042H4.26664V29.8669C4.26664 30.4565 4.74424 30.9336 5.33329 30.9336C5.92235 30.9336 6.39995 31.4112 6.39995 32.0003C6.39995 32.5898 5.92235 33.0669 5.33329 33.0669C4.74424 33.0669 4.26664 32.5898 4.26664 32.0003H2.13332C2.13644 32.781 2.42654 33.5336 2.94946 34.1138L0.21354 37.7606L0.227082 37.771C0.0843743 37.9502 0.00468746 38.1716 0 38.4002V42.6668C0 42.9502 0.112499 43.221 0.312498 43.421L2.44582 45.5543C2.64581 45.7543 2.91717 45.8668 3.19998 45.8668H7.46661C7.74942 45.8668 8.02078 45.7543 8.22077 45.5543L10.3541 43.421C10.5541 43.221 10.6666 42.9502 10.6666 42.6668V38.4002C10.6619 38.1716 10.5822 37.9502 10.4395 37.771L10.453 37.7606L7.71713 34.1138C8.42963 33.3221 8.69837 32.2263 8.43327 31.1951C8.16869 30.1638 7.40515 29.3336 6.39995 28.9831V9.60042H42.6664V10.6671C42.6664 11.2567 43.144 11.7337 43.733 11.7337H45.8663V61.8667H41.5997V19.2003H39.4664V23.467H33.0664V21.3337H30.9331V23.467H24.5332V22.4003H22.3998V23.467H15.9999V20.267H29.8665V18.1337H15.9999V13.8671H13.8666V61.8667H12.1749L7.15412 56.8464C6.73745 56.4298 6.06246 56.4298 5.64579 56.8464L0.624995 61.8667H0V64H63.9995V61.8667H63.1678C63.9183 61.0474 64.185 59.8943 63.8704 58.8282C63.5563 57.7626 62.7068 56.9386 61.6313 56.6574C62.1735 55.3204 61.7548 53.7866 60.6079 52.911C59.4616 52.0355 57.8709 52.0355 56.7246 52.911C55.5777 53.7866 55.159 55.3204 55.7012 56.6574C54.6256 56.9386 53.7762 57.7626 53.4621 58.8282C53.1475 59.8943 53.4142 61.0474 54.1647 61.8667H52.2663V11.7337H54.3996C54.9887 11.7337 55.4663 11.2567 55.4663 10.6671V9.60042H62.9329C63.5219 9.60042 63.9995 9.12334 63.9995 8.53376V4.26712C63.9995 3.67807 63.5219 3.20047 62.9329 3.20047V3.20047ZM5.86662 35.2002L7.46661 37.3336H3.19998L4.79997 35.2002H5.86662ZM8.53327 42.2257L7.02495 43.7335H3.64164L2.13332 42.2257V39.4669H8.53327V42.2257ZM58.3465 5.33378L55.4663 7.25408V5.33378H58.3465ZM44.7997 2.13381H49.0663V6.40044H44.7997V2.13381ZM15.9999 5.54732L18.8801 7.4671H13.1197L15.9999 5.54732ZM9.59993 7.25408L6.71974 5.33378H12.4801L9.59993 7.25408ZM19.5197 5.33378H25.28L22.3998 7.25408L19.5197 5.33378ZM28.7998 5.54732L31.68 7.4671H25.9196L28.7998 5.54732ZM32.3196 5.33378H38.0799L35.1997 7.25408L32.3196 5.33378ZM2.13332 5.33378H2.88019L6.08016 7.4671H2.13332V5.33378ZM38.7195 7.4671L41.9195 5.33378H42.6664V7.4671H38.7195ZM50.133 58.3469L48.2132 55.4668L50.133 52.5871V58.3469ZM50.133 32.7471L48.2132 29.8669L50.133 26.9873V32.7471ZM47.9997 33.3872L49.9194 36.2669L47.9997 39.1471V33.3872ZM47.9997 26.3472V20.5873L49.9194 23.467L47.9997 26.3472ZM47.9997 46.1871L49.9194 49.0668L47.9997 51.947V46.1871ZM50.133 45.5408L48.2132 42.6668L50.133 39.7872V45.5408ZM48.2132 17.067L50.133 14.1874V19.9472L48.2132 17.067ZM47.9997 13.5473V11.7337H49.2069L47.9997 13.5473ZM39.4664 25.6003V36.2669H33.0664V25.6003H39.4664ZM30.9331 25.6003V34.7737L28.48 32.3492C28.281 32.1529 28.0128 32.0419 27.7331 32.0409H24.5332V25.6003H30.9331ZM22.3998 25.6003V27.3784H15.9999V25.6003H22.3998ZM6.39995 59.1084L9.15827 61.8667H3.64164L6.39995 59.1084ZM15.9999 61.8667V29.5117H22.3998V33.1117C22.3998 33.7013 22.8774 34.1784 23.4665 34.1784H27.2946L31.2529 38.0924C31.4519 38.2888 31.7201 38.3997 31.9998 38.4002H39.4664V61.8667H15.9999ZM47.9997 58.987L49.9194 61.8667H47.9997V58.987ZM60.7996 60.8C60.2105 60.8 59.7329 60.323 59.7329 59.7334C59.7329 59.1443 60.2105 58.6667 60.7996 58.6667C61.3886 58.6667 61.8662 59.1443 61.8662 59.7334C61.8662 60.323 61.3886 60.8 60.7996 60.8ZM58.6662 54.4001C59.2553 54.4001 59.7329 54.8777 59.7329 55.4668C59.7329 56.0563 59.2553 56.5334 58.6662 56.5334C58.0772 56.5334 57.5996 56.0563 57.5996 55.4668C57.5996 54.8777 58.0772 54.4001 58.6662 54.4001ZM56.5329 58.6667C57.122 58.6667 57.5996 59.1443 57.5996 59.7334C57.5996 60.323 57.122 60.8 56.5329 60.8C55.9439 60.8 55.4663 60.323 55.4663 59.7334C55.4663 59.1443 55.9439 58.6667 56.5329 58.6667ZM53.3329 9.60042H44.7997V8.53376H50.133C50.722 8.53376 51.1996 8.05668 51.1996 7.4671V2.13381H53.3329V9.60042ZM58.986 7.4671L61.8662 5.54732V7.4671H58.986Z" fill="#EA4E1B"/>
</g>
<defs>
<clipPath id="clip0_1285_14543">
<rect width="64" height="64" fill="white"/>
</clipPath>
</defs>
</svg>