<svg width="31" height="16" viewBox="0 0 31 16" fill="none" xmlns="http://www.w3.org/2000/svg">
<rect width="23" height="16" rx="1" fill="white"/>
<path d="M2.752 11H6.72V10.12H3.792V5.4H2.752V11ZM7.54106 11H8.58106V5.4H7.54106V11ZM14.1367 5.4L12.2567 9.72L10.3927 5.4H9.26469L11.7127 11H12.7367L15.1767 5.4H14.1367ZM16.8076 10.128V8.584H19.5116V7.728H16.8076V6.272H19.8556V5.4H15.7676V11H19.9676V10.128H16.8076Z" fill="#EA4E1B"/>
<path d="M23.5141 6.26496C23.5141 6.10521 23.5904 5.95507 23.7195 5.86095L29.5755 1.59134C29.9062 1.35019 30.3708 1.58693 30.3701 1.99626L30.3484 14.0275C30.3477 14.4364 29.8831 14.6715 29.5531 14.4301L23.7187 10.1605C23.5901 10.0664 23.514 9.91649 23.514 9.75704L23.5141 6.26496Z" fill="white"/>
</svg>
