<svg width="77" height="48" viewBox="0 0 77 48" fill="none" xmlns="http://www.w3.org/2000/svg">
<path d="M5.33191 34.8012V13.6324C5.39643 13.1406 5.64245 12.6901 6.02215 12.3686C6.53279 12.1047 7.10425 11.9791 7.67917 12.0044H19.7319" stroke="#EA4E1B" stroke-width="2" stroke-linecap="round"/>
<path d="M42.5319 12.0012L59.6862 12.0012C60.1713 12.0336 60.6423 12.1952 61.0596 12.4725C61.1945 12.6181 61.2996 12.7945 61.3678 12.9894C61.436 13.1843 61.4657 13.3933 61.4549 13.6022V26.6876L73.7319 18.2178V42.0012L61.0596 33.1289" stroke="#EA4E1B" stroke-width="2" stroke-linecap="round"/>
<path d="M14.692 35H23.62V33.02H17.032V22.4H14.692V35ZM25.4674 35H27.8074V22.4H25.4674V35ZM40.3075 22.4L36.0775 32.12L31.8835 22.4H29.3455L34.8535 35H37.1575L42.6475 22.4H40.3075ZM46.3172 33.038V29.564H52.4012V27.638H46.3172V24.362H53.1752V22.4H43.9772V35H53.4272V33.038H46.3172Z" fill="white"/>
<circle opacity="0.6" cx="31.068" cy="11.3988" r="8.15" stroke="#EA4E1B" stroke-width="0.5"/>
<path opacity="0.6" d="M36.818 11.3988C36.818 14.5744 34.2436 17.1488 31.068 17.1488C27.8924 17.1488 25.318 14.5744 25.318 11.3988C25.318 8.22317 27.8924 5.6488 31.068 5.6488C34.2436 5.6488 36.818 8.22317 36.818 11.3988Z" stroke="#EA4E1B" stroke-width="0.5"/>
<path d="M34.568 11.3988C34.568 13.3318 33.001 14.8988 31.068 14.8988C29.135 14.8988 27.568 13.3318 27.568 11.3988C27.568 9.46583 29.135 7.89883 31.068 7.89883C33.001 7.89883 34.568 9.46583 34.568 11.3988Z" fill="#EA4E1B" stroke="#EA4E1B" stroke-width="0.2"/>
</svg>
