<svg width="12" height="16" viewBox="0 0 12 16" fill="none" xmlns="http://www.w3.org/2000/svg">
<path d="M6.00041 0C2.80117 0 0.217773 2.5834 0.217773 5.78263C0.217773 6.8981 0.574104 7.96322 1.06987 8.83852L4.83846 15.3609C5.07472 15.7869 5.55112 16 6.00041 16C6.44973 16 6.90285 15.7869 7.16235 15.3609L10.9309 8.84239C11.4306 7.96702 11.783 6.92127 11.783 5.78643C11.783 2.58727 9.19964 0 6.00041 0ZM6.00041 7.4907C4.83846 7.4907 3.88953 6.54177 3.88953 5.37982C3.88953 4.21788 4.83846 3.26895 6.00041 3.26895C7.16235 3.26895 8.11128 4.21788 8.11128 5.37982C8.11128 6.54565 7.16235 7.4907 6.00041 7.4907Z" fill="#EA4E1B"/>
</svg>
