<svg width="16" height="16" viewBox="0 0 16 16" fill="none" xmlns="http://www.w3.org/2000/svg">
<g clip-path="url(#clip0_3017_6738)">
<path d="M12.1526 9.78279C11.7952 9.69613 11.4352 9.91944 11.3506 10.2774C11.2652 10.6354 11.4872 10.9948 11.8452 11.0794C13.9158 11.5708 14.6665 12.2974 14.6665 12.6667C14.6665 13.4634 12.0079 14.6667 7.99998 14.6667C3.99271 14.6667 1.33345 13.4634 1.33345 12.6667C1.33345 12.2974 2.08478 11.5708 4.15405 11.0794C4.5127 10.9948 4.73404 10.6354 4.6487 10.2774C4.56404 9.91944 4.20405 9.6961 3.84671 9.78279C1.36611 10.3708 0.000133514 11.3948 0.000133514 12.6667C0.000133514 14.8547 4.0254 16 7.99998 16C11.9752 16 15.9998 14.8547 15.9998 12.6667C15.9998 11.3948 14.6338 10.3708 12.1526 9.78279Z" fill="#BDBDBD"/>
<path d="M8.0003 5.33365C8.36829 5.33365 8.66694 5.035 8.66694 4.66701C8.66694 4.29902 8.36829 4.00037 8.0003 4.00037C7.6323 4.00037 7.33365 4.29902 7.33365 4.66701C7.33365 5.035 7.6323 5.33365 8.0003 5.33365Z" fill="#BDBDBD"/>
<path d="M7.13229 12.4222L7.40362 12.9648C7.51696 13.1908 7.74762 13.3335 8.00027 13.3335C8.25292 13.3335 8.4836 13.1908 8.59691 12.9648L9.17156 11.8155C9.87089 10.4162 10.7335 9.0609 11.5675 7.75024L11.9475 7.15225C12.4181 6.40827 12.6668 5.54894 12.6668 4.66696C12.6668 3.33898 12.0982 2.06966 11.1069 1.18437C10.1162 0.29973 8.7836 -0.124231 7.45497 0.0317664C5.38032 0.267762 3.66704 1.93839 3.3797 4.00369C3.20971 5.22767 3.5157 6.44299 4.24034 7.42697C5.37101 8.95891 6.25365 10.6636 7.13229 12.4222ZM8.00027 2.66703C9.1029 2.66703 10.0002 3.56435 10.0002 4.66699C10.0002 5.76962 9.1029 6.66695 8.00027 6.66695C6.89763 6.66695 6.00031 5.76962 6.00031 4.66699C6.00031 3.56435 6.89763 2.66703 8.00027 2.66703Z" fill="#BDBDBD"/>
</g>
<defs>
<clipPath id="clip0_3017_6738">
<rect width="16" height="16" fill="white"/>
</clipPath>
</defs>
</svg>
