<svg width="148" height="64" viewBox="0 0 148 64" fill="none" xmlns="http://www.w3.org/2000/svg">
<path d="M54.6628 0H11.1235L0.878601 7.76734V9.34664H11.0785L0.878601 17.0787V19.435H11.0785L0.878601 27.1671V30.9969H11.0785L0.878601 38.729V44.6646H11.0785L0.878601 52.3967V63.7826H47.4748L54.6628 58.3323V44.6294H47.5198L54.6628 39.2144V30.9617H47.5198L54.6628 25.5467V19.3997H47.5198L54.6628 13.9847V9.31141H47.5198L54.6628 3.89835V0Z" fill="#E74F24"/>
<path d="M64.2874 29.184H66.8061L71.3717 37.2037V29.184H73.6106V40.6853H71.2093L66.5262 32.5246V40.6853H64.2874V29.184Z" fill="white"/>
<path d="M84.2918 31.2212H78.2055V33.6635H83.7928V35.6616H78.2055V38.6187H84.5736V40.6872H75.8571V29.1859H84.2918V31.2212Z" fill="white"/>
<path d="M88.4838 29.184L90.0024 35.7712L90.3331 37.6049L90.6658 35.8104L91.9653 29.1859H94.5015L95.8675 35.7712L96.2178 37.6049L96.574 35.8417L98.1063 29.184H100.553L97.3177 40.6853H95.0162L93.6268 33.959L93.2216 31.7359L92.8166 33.959L91.4271 40.6853H89.1941L85.9318 29.184H88.4838Z" fill="white"/>
<path d="M106.625 30.3346C107.551 29.3874 108.731 28.9138 110.161 28.9138C112.075 28.9138 113.477 29.5479 114.361 30.818C114.85 31.5303 115.113 32.2466 115.148 32.9629H112.745C112.592 32.411 112.396 31.9961 112.156 31.7143C111.727 31.2153 111.093 30.9648 110.251 30.9648C109.394 30.9648 108.719 31.317 108.226 32.0215C107.731 32.7261 107.484 33.7241 107.484 35.0138C107.484 36.3035 107.744 37.2702 108.267 37.9121C108.79 38.554 109.451 38.875 110.255 38.875C111.079 38.875 111.707 38.599 112.14 38.0471C112.379 37.7497 112.578 37.3054 112.735 36.7125H115.122C114.917 37.9669 114.39 38.9865 113.543 39.7713C112.696 40.556 111.612 40.9494 110.289 40.9494C108.653 40.9494 107.365 40.419 106.429 39.3583C105.492 38.2918 105.024 36.8299 105.024 34.9727C105.028 32.9707 105.56 31.4227 106.625 30.3346Z" fill="white"/>
<path d="M119.704 40.6362H117.316V29.1349H119.704V40.6362Z" fill="white"/>
<path d="M131.189 29.1329V31.1702H127.749V40.6362H125.33V31.1702H121.874V29.1329H131.189Z" fill="white"/>
<path d="M140.507 29.1329H143.231L139.383 36.323V40.6362H136.98V36.323L133 29.1329H135.831L138.219 34.1429L140.507 29.1329Z" fill="white"/>
<path d="M72.0488 52.2002C71.3756 52.7618 70.4147 53.0436 69.1641 53.0436H66.7688V57.1788H64.3812V45.6775H69.3207C70.4597 45.6775 71.3677 45.975 72.0449 46.5679C72.722 47.1609 73.0605 48.0787 73.0605 49.3234C73.0586 50.6796 72.722 51.6385 72.0488 52.2002ZM70.2131 48.0572C69.9098 47.8028 69.4831 47.6756 68.9332 47.6756H66.7668V51.0631H68.9332C69.4812 51.0631 69.9078 50.9262 70.2131 50.6502C70.5164 50.3743 70.6691 49.9379 70.6691 49.339C70.671 48.7382 70.5184 48.3116 70.2131 48.0572Z" fill="white"/>
<path d="M82.5168 45.973C82.9395 46.155 83.2996 46.4231 83.5932 46.7773C83.8358 47.0689 84.0296 47.3918 84.1724 47.7441C84.3153 48.0963 84.3858 48.5014 84.3858 48.9535C84.3858 49.4995 84.2488 50.0377 83.9728 50.5661C83.6969 51.0945 83.2409 51.4663 82.6068 51.6855C83.1372 51.8988 83.5129 52.2021 83.7341 52.5955C83.9552 52.9888 84.0648 53.5877 84.0648 54.394V55.167C84.0648 55.6934 84.0863 56.0496 84.1274 56.2355C84.1901 56.533 84.3388 56.7502 84.5717 56.8911V57.1807H81.918C81.8456 56.9263 81.7927 56.7208 81.7614 56.5643C81.6988 56.2414 81.6655 55.9106 81.6597 55.574L81.644 54.5055C81.6342 53.7716 81.507 53.2824 81.2643 53.0378C81.0217 52.7931 80.5637 52.6718 79.8944 52.6718H77.548V57.1827H75.1996V45.6814H80.7007C81.4874 45.6931 82.0922 45.791 82.5168 45.973ZM77.548 47.6756V50.7657H80.1351C80.6498 50.7657 81.0334 50.7031 81.2917 50.5778C81.7458 50.3586 81.9728 49.9281 81.9728 49.2823C81.9728 48.5856 81.7536 48.1179 81.3133 47.8772C81.0667 47.7421 80.6949 47.6736 80.2017 47.6736H77.548V47.6756Z" fill="white"/>
<path d="M95.703 56.1572C94.8341 57.0515 93.5777 57.4997 91.9339 57.4997C90.29 57.4997 89.0336 57.0515 88.1647 56.1572C87.0003 55.0593 86.4171 53.4781 86.4171 51.4134C86.4171 49.3057 87.0003 47.7245 88.1647 46.6697C89.0336 45.7753 90.29 45.3271 91.9339 45.3271C93.5777 45.3271 94.8341 45.7753 95.703 46.6697C96.8635 47.7264 97.4428 49.3077 97.4428 51.4134C97.4428 53.4781 96.8635 55.0593 95.703 56.1572ZM94.2001 54.4096C94.7598 53.707 95.0396 52.709 95.0396 51.4134C95.0396 50.1238 94.7598 49.1257 94.2001 48.4212C93.6403 47.7166 92.885 47.3644 91.9339 47.3644C90.9808 47.3644 90.2215 47.7147 89.6559 48.4173C89.0884 49.1198 88.8046 50.1179 88.8046 51.4134C88.8046 52.709 89.0884 53.707 89.6559 54.4096C90.2234 55.1122 90.9828 55.4625 91.9339 55.4625C92.8869 55.4625 93.6423 55.1122 94.2001 54.4096Z" fill="white"/>
<path d="M115.089 47.7147H109.003V50.157H114.59V52.1552H109.003V55.1122H115.371V57.1807H106.654V45.6794H115.089V47.7147Z" fill="white"/>
<path d="M118.5 46.8791C119.426 45.932 120.604 45.4584 122.036 45.4584C123.95 45.4584 125.352 46.0924 126.236 47.3625C126.725 48.0749 126.988 48.7911 127.023 49.5074H124.62C124.467 48.9555 124.271 48.5406 124.031 48.2588C123.602 47.7598 122.968 47.5093 122.126 47.5093C121.269 47.5093 120.594 47.8616 120.101 48.5661C119.606 49.2706 119.359 50.2687 119.359 51.5583C119.359 52.848 119.62 53.8148 120.142 54.4567C120.665 55.0986 121.326 55.4195 122.13 55.4195C122.954 55.4195 123.582 55.1436 124.015 54.5917C124.254 54.2942 124.453 53.85 124.61 53.257H126.997C126.792 54.5115 126.266 55.5311 125.418 56.3158C124.571 57.1006 123.487 57.4939 122.164 57.4939C120.528 57.4939 119.24 56.9636 118.304 55.9029C117.369 54.8363 116.899 53.3744 116.899 51.5172C116.903 49.5133 117.436 47.9672 118.5 46.8791Z" fill="white"/>
<path d="M137.46 45.6775V47.7147H134.019V57.1807H131.6V47.7147H128.144V45.6775H137.46Z" fill="white"/>
<path d="M140.757 53.629C140.831 54.1554 140.978 54.5468 141.195 54.8071C141.595 55.2807 142.276 55.5175 143.243 55.5175C143.822 55.5175 144.291 55.4549 144.654 55.3296C145.338 55.0908 145.681 54.6447 145.681 53.9949C145.681 53.6153 145.513 53.3217 145.178 53.1123C144.843 52.9088 144.309 52.7307 143.581 52.5741L142.336 52.3021C141.113 52.0321 140.272 51.7385 139.814 51.4195C139.039 50.8892 138.651 50.0594 138.651 48.9302C138.651 47.9008 139.031 47.0456 139.788 46.3626C140.546 45.6816 141.661 45.3411 143.129 45.3411C144.356 45.3411 145.403 45.662 146.27 46.3039C147.137 46.9458 147.591 47.8793 147.632 49.1024H145.323C145.28 48.4096 144.971 47.9184 144.395 47.6268C144.012 47.4351 143.534 47.3372 142.963 47.3372C142.329 47.3372 141.822 47.4625 141.442 47.711C141.062 47.9615 140.875 48.3098 140.875 48.756C140.875 49.167 141.06 49.4743 141.434 49.6778C141.675 49.8128 142.184 49.9713 142.963 50.1533L144.98 50.6289C145.865 50.8363 146.528 51.1162 146.971 51.4645C147.656 52.0047 148 52.7894 148 53.8129C148 54.8638 147.593 55.7366 146.781 56.4314C145.969 57.1261 144.822 57.4725 143.338 57.4725C141.824 57.4725 140.634 57.13 139.765 56.447C138.898 55.7621 138.464 54.8227 138.464 53.627H140.757V53.629Z" fill="white"/>
<path d="M98.4878 55.1083H100.965C101.445 55.1083 101.686 54.8363 101.686 54.3099V45.7108H104.134V54.8696C104.134 56.3549 103.382 57.1064 101.897 57.1064H98.4898V55.1083H98.4878Z" fill="white"/>
</svg>
