<svg width="26" height="32" viewBox="0 0 26 32" fill="none" xmlns="http://www.w3.org/2000/svg">
<path d="M25.1101 6.72386L24.6847 6.29848L19.115 0.728828L18.6897 0.303448C18.4971 0.110897 18.2301 0 17.957 0H1.94483C1.29049 0 0.585938 0.505379 0.585938 1.61434V21.5172V30.6411V30.8966C0.585938 31.3583 1.05049 31.8086 1.60001 31.9503C1.62759 31.9575 1.65408 31.968 1.68277 31.9735C1.76883 31.9906 1.85656 32 1.94483 32H24.0546C24.1429 32 24.2306 31.9906 24.3167 31.9735C24.3454 31.968 24.3719 31.9575 24.3995 31.9503C24.949 31.8086 25.4135 31.3583 25.4135 30.8966V30.6411V21.5172V7.712C25.4135 7.28883 25.3628 6.97655 25.1101 6.72386ZM23.4466 6.62069H18.7928V1.9669L23.4466 6.62069ZM1.94483 30.8966C1.90566 30.8966 1.87035 30.8822 1.83559 30.8695C1.74952 30.8287 1.68939 30.7426 1.68939 30.6411V22.6207H24.3101V30.6411C24.3101 30.7426 24.2499 30.8281 24.1639 30.8695C24.1291 30.8822 24.0938 30.8966 24.0546 30.8966H1.94483ZM1.68939 21.5172V1.61434C1.68939 1.49462 1.70759 1.10345 1.94483 1.10345H17.7214C17.7032 1.17297 17.6894 1.24469 17.6894 1.31917V7.72414H24.0944C24.1688 7.72414 24.24 7.71034 24.3095 7.69214C24.3095 7.70041 24.3101 7.70372 24.3101 7.712V21.5172H1.68939Z" fill="#828282"/>
<path d="M9.16076 24.6864C8.97704 24.5358 8.76959 24.4221 8.53842 24.3471C8.30725 24.2715 8.07332 24.234 7.83718 24.234H6.23828V29.7932H7.14366V27.7866H7.81511C8.10642 27.7866 8.37345 27.7441 8.61456 27.6586C8.85566 27.573 9.06201 27.4522 9.23304 27.2966C9.40407 27.141 9.53704 26.9485 9.63304 26.7195C9.72849 26.4906 9.77649 26.2357 9.77649 25.9537C9.77649 25.6873 9.71966 25.4473 9.60656 25.2332C9.49345 25.0191 9.34449 24.8376 9.16076 24.6864ZM8.81759 26.5231C8.76187 26.6765 8.68959 26.7957 8.59911 26.8812C8.50863 26.9667 8.40931 27.0285 8.30118 27.066C8.19304 27.1035 8.08325 27.1228 7.9729 27.1228H7.14311V24.9204H7.82173C8.0529 24.9204 8.23883 24.9568 8.38007 25.0296C8.52076 25.1024 8.63 25.1929 8.70835 25.301C8.78614 25.4092 8.83745 25.5223 8.86283 25.6404C8.88766 25.7584 8.90035 25.8627 8.90035 25.9532C8.90035 26.1799 8.87276 26.3697 8.81759 26.5231Z" fill="#828282"/>
<path d="M14.6292 25.0484C14.3953 24.8023 14.1012 24.6042 13.7465 24.4564C13.3917 24.3085 12.9807 24.234 12.5134 24.234H10.8389V29.7932H12.9431C13.0132 29.7932 13.1214 29.7844 13.2676 29.7667C13.4132 29.749 13.5743 29.7093 13.7503 29.6459C13.9263 29.583 14.1084 29.4886 14.2971 29.3628C14.4858 29.237 14.6551 29.0649 14.8063 28.8459C14.9575 28.6268 15.0816 28.3554 15.1798 28.031C15.278 27.7066 15.3271 27.3154 15.3271 26.858C15.3271 26.5259 15.2692 26.2026 15.1539 25.8886C15.0375 25.5753 14.8631 25.295 14.6292 25.0484ZM13.9694 28.5408C13.6979 28.933 13.2554 29.1289 12.6419 29.1289H11.7442V24.9198H12.2722C12.7048 24.9198 13.0568 24.9766 13.3282 25.0897C13.5997 25.2028 13.8149 25.3513 13.9732 25.535C14.1316 25.7187 14.238 25.9234 14.2938 26.1496C14.3489 26.3758 14.3765 26.6048 14.3765 26.8359C14.3765 27.5802 14.2408 28.149 13.9694 28.5408Z" fill="#828282"/>
<path d="M16.6406 29.7932H17.5609V27.2889H19.8842V26.6704H17.5609V24.9204H20.1176V24.234H16.6406V29.7932Z" fill="#828282"/>
<path d="M18.202 12.6681C17.6949 12.6681 17.0726 12.7344 16.3493 12.8657C15.3396 11.7942 14.2858 10.2295 13.5421 8.69352C14.2798 5.58787 13.9107 5.14815 13.7479 4.9407C13.5747 4.72001 13.3303 4.36194 13.0522 4.36194C12.9358 4.36194 12.618 4.4149 12.4916 4.45683C12.1738 4.56277 12.0028 4.80773 11.866 5.12718C11.4759 6.03918 12.0111 7.59394 12.5617 8.79228C12.0911 10.6643 11.3016 12.9048 10.4718 14.7233C8.38074 15.6811 7.27012 16.6218 7.16971 17.5195C7.13329 17.8461 7.21054 18.3255 7.78488 18.7564C7.94212 18.8739 8.1264 18.9363 8.3184 18.9363C8.80116 18.9363 9.28888 18.5666 9.85329 17.7738C10.2649 17.1956 10.7068 16.4072 11.1681 15.4284C12.6456 14.7824 14.4734 14.1986 16.0387 13.8715C16.9104 14.7084 17.6911 15.1321 18.362 15.1321C18.8563 15.1321 19.2801 14.9048 19.5868 14.475C19.9063 14.0276 19.9791 13.627 19.802 13.2833C19.5896 12.8701 19.066 12.6681 18.202 12.6681ZM8.33053 18.005C8.07233 17.8069 8.08722 17.6734 8.09274 17.6232C8.12695 17.3164 8.6075 16.7719 9.78653 16.1092C8.89274 17.76 8.41274 17.979 8.33053 18.005ZM12.8547 5.35835C12.8784 5.35063 13.4312 5.9658 12.9076 7.1327C12.1209 6.32773 12.8006 5.37656 12.8547 5.35835ZM11.7143 14.2003C12.2743 12.8657 12.7951 11.392 13.1896 10.027C13.8092 11.1404 14.5534 12.2207 15.2983 13.0858C14.1209 13.3622 12.8674 13.7523 11.7143 14.2003ZM18.8321 13.936C18.6621 14.1738 18.2936 14.1793 18.1645 14.1793C17.8704 14.1793 17.7606 14.0044 17.3109 13.6585C17.6817 13.611 18.0315 13.5989 18.3101 13.5989C18.8006 13.5989 18.8905 13.6712 18.9584 13.7076C18.9463 13.7468 18.9143 13.8207 18.8321 13.936Z" fill="#EA4E1B"/>
</svg>
