<svg width="20" height="20" viewBox="0 0 20 20" fill="none" xmlns="http://www.w3.org/2000/svg">
<g clip-path="url(#clip0_3017_6079)">
<path d="M14.133 12.8004C13.806 12.529 13.4372 12.3842 13.094 12.3933C12.8364 12.4 12.6065 12.4948 12.4273 12.6675C12.0618 12.9196 11.6132 13.2095 11.5119 13.2474C10.7345 13.513 10.2008 13.3428 9.72768 12.6795L7.0692 8.95191C6.59588 8.2882 6.65035 7.78593 7.25031 7.27367C7.33303 7.20736 7.81862 6.96963 8.23052 6.78219C8.48238 6.71136 8.67661 6.56655 8.79308 6.36187C8.94795 6.08949 8.95807 5.7309 8.82015 5.34871C8.78722 5.26055 7.99919 3.18055 7.01778 2.4144C6.51958 2.02543 5.82568 1.96697 5.29087 2.26916L4.40988 2.76628C3.0168 3.55343 2.33357 4.64434 2.37853 6.00838C2.41621 7.14545 2.96791 8.46904 4.01875 9.94224L7.42215 14.715C8.75576 16.5851 10.1782 17.6915 11.636 18.0152C12.7066 18.2529 13.7965 18.0682 14.8841 17.4539L15.7646 16.9564C16.2994 16.6542 16.5356 16.0704 16.3518 15.5035C15.9904 14.3866 14.2114 12.867 14.133 12.8004ZM15.4373 16.4974L14.5568 16.995C12.2772 18.2826 10.0419 17.4225 7.91318 14.4378L4.50948 9.66496C3.52096 8.2788 3.0026 7.05111 2.96829 6.01641C2.92909 4.83284 3.50776 3.92031 4.73709 3.22546L5.61756 2.72795C5.81429 2.61702 6.04718 2.58787 6.26614 2.63649C6.40122 2.66649 6.53128 2.72596 6.64427 2.81442C7.49602 3.47966 8.25442 5.48124 8.26096 5.49826C8.34534 5.73197 8.34735 5.95668 8.26621 6.09929C8.21648 6.18658 8.13585 6.24353 8.02004 6.27299L7.97064 6.29043C7.68275 6.421 6.99604 6.73891 6.83686 6.87484C6.60759 7.07086 6.43882 7.27596 6.32675 7.48954C6.20305 7.07474 6.13165 6.61035 6.18224 6.12416C6.19742 5.97784 6.07748 5.84549 5.9162 5.82143C5.75405 5.80127 5.60996 5.9034 5.59466 6.05024C5.4016 7.90666 6.70397 9.43216 6.75957 9.49614C6.76565 9.50295 6.77357 9.50689 6.78011 9.51299L9.23648 12.9575C9.2469 12.9721 9.25818 12.9855 9.26865 12.9998C9.27583 13.0154 9.27919 13.0317 9.28984 13.0466C9.33369 13.1074 10.3865 14.5376 12.3395 15.1669C12.3494 15.1699 12.3595 15.1727 12.3693 15.1748C12.5157 15.2073 12.6633 15.1355 12.7086 15.0054C12.7569 14.8659 12.6698 14.7125 12.5141 14.662C11.9153 14.4693 11.4094 14.1876 10.9994 13.9001C11.234 13.8894 11.4811 13.8399 11.7402 13.7516C11.9464 13.681 12.5618 13.2634 12.8168 13.087L12.8556 13.0544C12.9348 12.9739 13.027 12.9332 13.1369 12.93C13.3162 12.9264 13.544 13.0226 13.7432 13.1875C13.7603 13.2023 15.4724 14.6649 15.7862 15.6341C15.8954 15.9706 15.7552 16.3178 15.4373 16.4974Z" fill="white"/>
</g>
<defs>
<clipPath id="clip0_3017_6079">
<rect width="16" height="16" fill="white" transform="translate(3.57428 0.106201) rotate(12.5188)"/>
</clipPath>
</defs>
</svg>
