<svg width="16" height="16" viewBox="0 0 16 16" fill="none" xmlns="http://www.w3.org/2000/svg">
<g clip-path="url(#clip0_3017_5768)">
<path d="M3.00042 2.00042C2.91508 2.00042 2.82975 1.96775 2.76442 1.90308L1.66708 0.805082L0.569749 1.90308C0.439749 2.03308 0.228416 2.03308 0.0984155 1.90308C-0.0315845 1.77308 -0.0315845 1.56175 0.0984155 1.43175L1.43175 0.0984155C1.56175 -0.0315845 1.77308 -0.0315845 1.90308 0.0984155L3.23642 1.43175C3.36642 1.56175 3.36642 1.77308 3.23642 1.90308C3.17108 1.96775 3.08575 2.00042 3.00042 2.00042Z" fill="#BDBDBD"/>
<path d="M14.3338 15.9999C14.2485 15.9999 14.1631 15.9672 14.0978 15.9025C13.9678 15.7725 13.9678 15.5612 14.0978 15.4312L15.1951 14.3338L14.0978 13.2365C13.9678 13.1065 13.9678 12.8952 14.0978 12.7652C14.2278 12.6352 14.4391 12.6352 14.5691 12.7652L15.9025 14.0985C16.0325 14.2285 16.0325 14.4398 15.9025 14.5698L14.5691 15.9032C14.5045 15.9672 14.4191 15.9999 14.3338 15.9999Z" fill="#BDBDBD"/>
<path d="M1.66724 15.9993C1.48324 15.9993 1.33391 15.85 1.33391 15.666V0.499349C1.33391 0.315349 1.48324 0.166016 1.66724 0.166016C1.85124 0.166016 2.00057 0.315349 2.00057 0.499349V15.666C2.00057 15.85 1.85124 15.9993 1.66724 15.9993Z" fill="#BDBDBD"/>
<path d="M15.5 14.6667H0.333333C0.149333 14.6667 0 14.5173 0 14.3333C0 14.1493 0.149333 14 0.333333 14H15.5C15.684 14 15.8333 14.1493 15.8333 14.3333C15.8333 14.5173 15.684 14.6667 15.5 14.6667Z" fill="#BDBDBD"/>
<path d="M8.66667 6.66602C8.626 6.66602 8.58533 6.65868 8.54667 6.64402L4.21333 4.97735C4.08467 4.92802 4 4.80402 4 4.66602C4 4.52802 4.08467 4.40402 4.21333 4.35468L8.54667 2.68802C8.62333 2.65868 8.70933 2.65868 8.786 2.68802L13.1193 4.35468C13.2487 4.40402 13.3333 4.52802 13.3333 4.66602C13.3333 4.80402 13.2487 4.92802 13.12 4.97735L8.78667 6.64402C8.748 6.65868 8.70733 6.66602 8.66667 6.66602ZM5.262 4.66602L8.66667 5.97535L12.0713 4.66602L8.66667 3.35668L5.262 4.66602Z" fill="#BDBDBD"/>
<path d="M8.66667 12.0007C8.626 12.0007 8.58533 11.9933 8.54667 11.9787L4.21333 10.312C4.08467 10.2627 4 10.1387 4 10.0007V4.66732C4 4.48332 4.14933 4.33398 4.33333 4.33398C4.51733 4.33398 4.66667 4.48332 4.66667 4.66732V9.77198L8.66667 11.3107L12.6667 9.77198V4.66732C12.6667 4.48332 12.816 4.33398 13 4.33398C13.184 4.33398 13.3333 4.48332 13.3333 4.66732V10.0007C13.3333 10.1387 13.2487 10.2627 13.12 10.312L8.78667 11.9787C8.748 11.9933 8.70733 12.0007 8.66667 12.0007Z" fill="#BDBDBD"/>
<path d="M8.66725 12C8.48326 12 8.33392 11.8507 8.33392 11.6667V6.33333C8.33392 6.14933 8.48326 6 8.66725 6C8.85125 6 9.00058 6.14933 9.00058 6.33333V11.6667C9.00058 11.8507 8.85125 12 8.66725 12Z" fill="#BDBDBD"/>
<path d="M8 6.5L5 5.5V9.5L8 11V10.5V6.5Z" fill="#BDBDBD"/>
<path d="M8 6.5L5 5.5V9.5L8 11V10.5V6" stroke="#BDBDBD"/>
<path d="M12.5 5.5L9 6.5V11L12.5 9.5V5.5Z" fill="#BDBDBD" stroke="#BDBDBD"/>
</g>
<defs>
<clipPath id="clip0_3017_5768">
<rect width="16" height="16" fill="white"/>
</clipPath>
</defs>
</svg>
