<svg width="91" height="32" viewBox="0 0 91 32" fill="none" xmlns="http://www.w3.org/2000/svg">
<path d="M-88.878 17.9752L-88.878 19.832L89.8854 19.832L89.8854 17.9752L-88.878 17.9752Z" stroke="#EA4E1B" stroke-miterlimit="10" stroke-linecap="round" stroke-linejoin="round"/>
<path d="M-110.182 29.051L-110.182 30.9078L68.8555 30.9078L68.8555 29.051L-110.182 29.051Z" stroke="#EA4E1B" stroke-miterlimit="10" stroke-linecap="round" stroke-linejoin="round"/>
<path d="M68.857 30.9098L89.887 19.8317H-88.8791L-110.183 30.9098H68.857Z" stroke="#EA4E1B" stroke-miterlimit="10" stroke-linecap="round" stroke-linejoin="round"/>
<path d="M68.857 29.0502L89.887 17.9749H-88.8791L-110.183 29.0502H68.857Z" stroke="#EA4E1B" stroke-miterlimit="10" stroke-linecap="round" stroke-linejoin="round"/>
<path d="M-88.8772 12.4365L-88.8772 14.2934L89.8862 14.2934L89.8862 12.4365L-88.8772 12.4365Z" stroke="#EA4E1B" stroke-miterlimit="10" stroke-linecap="round" stroke-linejoin="round"/>
<path d="M-110.184 23.5125L-110.184 25.3694L68.8535 25.3694L68.8535 23.5125L-110.184 23.5125Z" stroke="#EA4E1B" stroke-miterlimit="10" stroke-linecap="round" stroke-linejoin="round"/>
<path d="M68.857 25.3694L89.887 14.2941H-88.8791L-110.183 25.3694H68.857Z" stroke="#EA4E1B" stroke-miterlimit="10" stroke-linecap="round" stroke-linejoin="round"/>
<path d="M68.857 23.5125L89.887 12.4344H-88.8791L-110.183 23.5125H68.857Z" stroke="#EA4E1B" stroke-miterlimit="10" stroke-linecap="round" stroke-linejoin="round"/>
<path d="M-88.879 6.8981L-88.879 8.75494L89.8843 8.75494L89.8843 6.8981L-88.879 6.8981Z" stroke="#EA4E1B" stroke-miterlimit="10" stroke-linecap="round" stroke-linejoin="round"/>
<path d="M-110.183 17.974L-110.183 19.8308L68.8544 19.8308L68.8544 17.974L-110.183 17.974Z" stroke="#EA4E1B" stroke-miterlimit="10" stroke-linecap="round" stroke-linejoin="round"/>
<path d="M68.857 19.8317L89.887 8.75366H-88.8791L-110.183 19.8317H68.857Z" stroke="#EA4E1B" stroke-miterlimit="10" stroke-linecap="round" stroke-linejoin="round"/>
<path d="M68.857 17.9748L89.887 6.89679H-88.8791L-110.183 17.9748H68.857Z" stroke="#EA4E1B" stroke-miterlimit="10" stroke-linecap="round" stroke-linejoin="round"/>
<path d="M-88.8782 1.35968L-88.8782 3.21655L89.8852 3.21655L89.8852 1.35968L-88.8782 1.35968Z" stroke="#EA4E1B" stroke-miterlimit="10" stroke-linecap="round" stroke-linejoin="round"/>
<path d="M-110.182 12.4355L-110.182 14.2924L68.8552 14.2924L68.8552 12.4355L-110.182 12.4355Z" stroke="#EA4E1B" stroke-miterlimit="10" stroke-linecap="round" stroke-linejoin="round"/>
<path d="M68.857 14.294L89.887 3.216H-88.8791L-110.183 14.294H68.857Z" stroke="#EA4E1B" stroke-miterlimit="10" stroke-linecap="round" stroke-linejoin="round"/>
<path d="M68.857 12.4344L89.887 1.35913H-88.8791L-110.183 12.4344H68.857Z" stroke="#EA4E1B" stroke-miterlimit="10" stroke-linecap="round" stroke-linejoin="round"/>
</svg>
