<svg width="24" height="24" viewBox="0 0 24 24" fill="none" xmlns="http://www.w3.org/2000/svg">
<path d="M22.3315 10.6188C21.6319 10.6188 21.0135 10.168 20.7977 9.50238C19.6313 5.89958 16.2493 3.28556 12.2624 3.28556C7.31284 3.28556 3.28586 7.31256 3.28586 12.262C3.28586 16.2321 5.87853 19.603 9.45958 20.7825C10.151 21.0103 10.6195 21.6567 10.6195 22.3855C10.6195 22.9017 10.3725 23.387 9.95532 23.6905C9.53816 23.9945 9.00063 24.0803 8.50974 23.9223C3.57868 22.3344 0 17.713 0 12.2619C0 5.50049 5.50071 0 12.2624 0C17.6923 0 22.2985 3.55021 23.9038 8.44946C24.0689 8.95326 23.9824 9.5055 23.6711 9.93494C23.3606 10.3641 22.8626 10.6188 22.3315 10.6188Z" fill="#EA4E1B"/>
<path d="M15.0177 20.7963C17.7435 19.914 19.9006 17.762 20.7894 15.0393C21.0109 14.3615 21.6422 13.9039 22.3554 13.9039H22.3892C22.9042 13.9039 23.388 14.1501 23.6912 14.566C23.9937 14.9819 24.0802 15.5181 23.9223 16.0082C22.7198 19.7468 19.7686 22.7038 16.0327 23.915C15.5376 24.0753 14.9946 23.9892 14.5735 23.6832C14.1523 23.3768 13.9028 22.8874 13.9028 22.3666V22.3309C13.9027 21.6322 14.3534 21.0117 15.0177 20.7963Z" fill="#EA4E1B"/>
</svg>
