<svg width="18" height="14" viewBox="0 0 18 14" fill="none" xmlns="http://www.w3.org/2000/svg">
<path d="M17.4895 1.66118C16.8632 1.93868 16.1905 2.12618 15.4832 2.21093C16.213 1.77428 16.7589 1.08703 17.0192 0.277432C16.3336 0.684674 15.5832 0.971328 14.8007 1.12493C14.2745 0.563081 13.5775 0.190676 12.818 0.0655373C12.0584 -0.0596019 11.2788 0.0695254 10.6001 0.432871C9.92149 0.796217 9.38179 1.37345 9.06482 2.07496C8.74786 2.77647 8.67136 3.56299 8.84721 4.31243C7.45797 4.24268 6.09893 3.88159 4.85828 3.25261C3.61763 2.62363 2.52309 1.7408 1.64571 0.661432C1.34571 1.17893 1.17321 1.77893 1.17321 2.41793C1.17288 2.99318 1.31454 3.55961 1.58562 4.06698C1.8567 4.57435 2.24883 5.00696 2.72721 5.32643C2.17242 5.30878 1.62987 5.15887 1.14471 4.88918V4.93418C1.14465 5.74099 1.42374 6.52297 1.9346 7.14743C2.44546 7.77189 3.15664 8.20038 3.94746 8.36018C3.4328 8.49947 2.89321 8.51999 2.36946 8.42018C2.59258 9.11439 3.02721 9.72145 3.61249 10.1564C4.19776 10.5913 4.9044 10.8323 5.63346 10.8457C4.39583 11.8172 2.86738 12.3442 1.29396 12.3419C1.01525 12.342 0.736768 12.3257 0.459961 12.2932C2.05707 13.3201 3.91622 13.865 5.81496 13.8629C12.2425 13.8629 15.7562 8.53943 15.7562 3.92243C15.7562 3.77243 15.7525 3.62093 15.7457 3.47093C16.4292 2.97666 17.0191 2.3646 17.488 1.66343L17.4895 1.66118Z" fill="white"/>
</svg>
