<svg width="16" height="16" viewBox="0 0 16 16" fill="none" xmlns="http://www.w3.org/2000/svg">
<g clip-path="url(#clip0_2365_17873)">
<path d="M9.59995 0H6.39955C3.31127 0 0.798828 2.51244 0.798828 5.60072V8.00103C0.798828 10.1692 2.04927 12.1368 3.99923 13.0623V15.7353C3.99923 15.9674 4.28958 16.0888 4.45452 15.9239L6.77667 13.6018H9.59992C12.6882 13.6018 15.2006 11.0893 15.2006 8.00103V5.60072C15.2006 2.51244 12.6882 0 9.59995 0Z" fill="#665CAC"/>
<path d="M4.79933 13.0623C2.84936 12.1367 1.59892 10.1692 1.59892 8.001V5.60069C1.59892 2.51244 4.11139 0 7.19964 0H6.39955C3.31127 0 0.798828 2.51244 0.798828 5.60072V8.00103C0.798828 10.1692 2.04927 12.1368 3.99923 13.0623V15.7353C3.99923 15.9674 4.28958 16.0888 4.45452 15.9239L4.79933 15.5791V13.0623Z" fill="#523494"/>
<path d="M12.0268 9.94071L11.787 8.64177C11.7671 8.53446 11.684 8.45005 11.577 8.42865L9.69116 8.05149C9.60357 8.03405 9.51332 8.0614 9.45022 8.12443L8.68407 8.89061C7.39319 8.31221 6.67676 7.59421 6.04638 6.24793L6.81007 5.48427C6.8731 5.42121 6.90047 5.33077 6.88301 5.24333L6.50585 3.35746C6.48444 3.25049 6.40004 3.1673 6.29272 3.14749L4.99379 2.90774C4.95822 2.90121 4.9216 2.9019 4.88629 2.90993C4.54332 2.98783 4.23038 3.16065 3.98129 3.4098C3.54997 3.84112 3.38513 4.47049 3.50463 5.2299C3.70522 6.50508 4.32997 8.27971 5.48263 9.43699L5.49838 9.45261C6.65476 10.6045 8.42941 11.2293 9.70466 11.4299C9.86532 11.4552 10.02 11.4677 10.1684 11.4677C10.7214 11.4677 11.1847 11.2933 11.5248 10.9532C11.7739 10.7041 11.9468 10.3911 12.0247 10.0482C12.0326 10.0129 12.0333 9.97633 12.0268 9.94071Z" fill="white"/>
<path d="M6.54886 5.74495L6.80961 5.48417L6.80989 5.48389L6.54883 5.74492L6.54886 5.74495Z" fill="#E5E5E5"/>
<path d="M9.44885 8.12414L9.18555 8.38745L9.18559 8.3875L9.4489 8.12419L9.44885 8.12414Z" fill="#E5E5E5"/>
<path d="M10.6704 10.9648C10.522 10.9648 10.3673 10.9522 10.2066 10.9269C8.9314 10.7263 7.15675 10.1015 6.00034 8.94963L5.98459 8.934C4.83194 7.77672 4.20719 6.0021 4.00659 4.72691C3.91006 4.11338 3.99931 3.58479 4.26459 3.17688C4.163 3.24466 4.06765 3.32241 3.98031 3.40975C3.549 3.84107 3.38415 4.47044 3.50365 5.22985C3.70425 6.50504 4.329 8.27966 5.48165 9.43694L5.4974 9.45257C6.65378 10.6044 8.42844 11.2292 9.70369 11.4298C9.86434 11.4552 10.0191 11.4677 10.1674 11.4677C10.7204 11.4677 11.1837 11.2933 11.5238 10.9532C11.6112 10.8658 11.6889 10.7705 11.7567 10.6689C11.4555 10.8648 11.0887 10.9648 10.6704 10.9648Z" fill="#E5E5E5"/>
<path d="M8.53329 4.53381C8.38601 4.53381 8.2666 4.65322 8.2666 4.8005C8.2666 4.94778 8.38601 5.06719 8.53329 5.06719C9.12154 5.06719 9.6001 5.54575 9.6001 6.134C9.6001 6.27931 9.72148 6.40069 9.86679 6.40069C10.0121 6.40069 10.1335 6.27931 10.1335 6.134C10.1335 5.25163 9.41566 4.53381 8.53329 4.53381Z" fill="white"/>
<path d="M8.53344 3.46704C8.43479 3.46704 8.33523 3.47251 8.23748 3.48329C8.09107 3.49945 7.98548 3.63123 8.00163 3.77767C8.01779 3.9241 8.14985 4.02942 8.29601 4.01351C8.37438 4.00485 8.45426 4.00045 8.53344 4.00045C9.70991 4.00045 10.667 4.95757 10.667 6.13404C10.667 6.21326 10.6626 6.29313 10.654 6.3715C10.638 6.51591 10.7453 6.64997 10.8898 6.66588C11.0343 6.68179 11.1682 6.5745 11.1842 6.43004C11.195 6.33229 11.2004 6.23272 11.2004 6.13404C11.2004 4.66348 10.004 3.46704 8.53344 3.46704Z" fill="white"/>
<path d="M8.53343 2.40027C8.43812 2.40027 8.34159 2.40389 8.24659 2.41111C8.09971 2.42224 7.98965 2.55036 8.00077 2.69721C8.01187 2.84408 8.14043 2.95414 8.28687 2.94302C8.36852 2.9368 8.45149 2.93367 8.53343 2.93367C10.2981 2.93367 11.7338 4.36936 11.7338 6.13408C11.7338 6.38377 11.705 6.63233 11.6482 6.87283C11.6156 7.01064 11.7005 7.15389 11.8371 7.19133C11.9809 7.23071 12.1331 7.14055 12.1673 6.99552C12.2336 6.71486 12.2672 6.42505 12.2672 6.13408C12.2672 4.07524 10.5923 2.40027 8.53343 2.40027Z" fill="white"/>
</g>
<defs>
<clipPath id="clip0_2365_17873">
<rect width="16" height="16" fill="white"/>
</clipPath>
</defs>
</svg>
