<svg width="20" height="27" viewBox="0 0 20 27" fill="none" xmlns="http://www.w3.org/2000/svg">
<path d="M9.98392 0C15.2222 0 19.4839 4.2582 19.4839 9.49219C19.4839 11.2606 18.9937 12.9864 18.0658 14.4836L10.5247 26.6261C10.3802 26.8587 10.1257 27 9.85203 27C9.84991 27 9.84786 27 9.84574 27C9.56966 26.9978 9.31464 26.8521 9.17283 26.6155L1.82389 14.3554C0.947254 12.8898 0.483917 11.2081 0.483917 9.49219C0.483917 4.2582 4.74562 0 9.98392 0ZM3.18266 13.5431L9.86401 24.6895L16.7201 13.6501C17.4924 12.4039 17.9111 10.9661 17.9111 9.49219C17.9111 5.13053 14.3492 1.57148 9.98392 1.57148C5.61867 1.57148 2.06197 5.13053 2.06197 9.49219C2.06197 10.9224 2.45311 12.3234 3.18266 13.5431Z" fill="#EA4E1B"/>
<path d="M7.04644 7.96423C6.34129 7.96423 5.76965 8.4839 5.76965 9.12495V12.8749C5.76965 13.516 6.34129 14.0357 7.04644 14.0357H10.7786C11.4837 14.0357 12.0554 13.516 12.0554 12.8749V9.12495C12.0554 8.4839 11.4837 7.96423 10.7786 7.96423H7.04644Z" fill="#EA4E1B"/>
<path d="M14.0681 13.3725L12.6447 12.1048V9.92818L14.0637 8.63236C14.3728 8.35016 14.9028 8.54912 14.9028 8.94732V13.0536C14.9028 13.4492 14.3788 13.6493 14.0681 13.3725Z" fill="#EA4E1B"/>
</svg>
