<svg width="24" height="14" viewBox="0 0 24 14" fill="none" xmlns="http://www.w3.org/2000/svg">
<path fill-rule="evenodd" clip-rule="evenodd" d="M23.2908 0.948C23.4556 0.402 23.2908 0 22.5012 0H19.894C19.2305 0 18.9246 0.347 18.7587 0.73C18.7587 0.73 17.4328 3.926 15.5547 6.002C14.9468 6.604 14.6707 6.795 14.339 6.795C14.1731 6.795 13.9238 6.604 13.9238 6.057V0.948C13.9238 0.292 13.7411 0 13.1888 0H9.08886C8.67469 0 8.42539 0.304 8.42539 0.593C8.42539 1.214 9.36497 1.358 9.46131 3.106V6.904C9.46131 7.737 9.30935 7.888 8.97762 7.888C8.09366 7.888 5.94336 4.677 4.66709 1.003C4.41978 0.288 4.16949 0 3.50305 0H0.893888C0.148981 0 0 0.347 0 0.73C0 1.412 0.883956 4.8 4.11685 9.281C6.27212 12.341 9.30637 14 12.0705 14C13.7281 14 13.9327 13.632 13.9327 12.997V10.684C13.9327 9.947 14.0897 9.8 14.6151 9.8C15.0024 9.8 15.6649 9.992 17.2123 11.467C18.9802 13.216 19.2712 14 20.2664 14H22.8736C23.6185 14 23.992 13.632 23.7774 12.904C23.541 12.18 22.6968 11.129 21.5775 9.882C20.9696 9.172 20.0579 8.407 19.7808 8.024C19.3944 7.533 19.5046 7.314 19.7808 6.877C19.7808 6.877 22.959 2.451 23.2898 0.948H23.2908Z" fill="white"/>
</svg>
