<svg width="14" height="14" viewBox="0 0 14 14" fill="none" xmlns="http://www.w3.org/2000/svg">
<path d="M0 14L1.204 10.3882C0.593069 9.36069 0.241379 8.16152 0.241379 6.87931C0.241379 3.08 3.32138 0 7.12069 0C10.92 0 14 3.08 14 6.87931C14 10.6786 10.92 13.7586 7.12069 13.7586C5.96472 13.7586 4.8761 13.4721 3.92 12.9686L0 14Z" fill="#2CB742"/>
<path d="M11.5096 9.16875C11.1919 8.56844 10.0205 7.88196 10.0205 7.88196C9.75548 7.73085 9.43566 7.71396 9.28455 7.98334C9.28455 7.98334 8.9039 8.43979 8.8071 8.50544C8.3649 8.80499 7.95528 8.79341 7.54179 8.37992L6.58086 7.41899L5.61993 6.45806C5.20645 6.04458 5.19486 5.63496 5.49441 5.19275C5.56007 5.09596 6.01652 4.7153 6.01652 4.7153C6.2859 4.56396 6.269 4.24437 6.1179 3.97934C6.1179 3.97934 5.43141 2.80792 4.8311 2.49027C4.57572 2.3551 4.26217 2.40241 4.05797 2.60661L3.63362 3.03096C2.28745 4.37713 2.95028 5.89685 4.29645 7.24303L5.52676 8.47334L6.75707 9.70365C8.10324 11.0498 9.62297 11.7126 10.9691 10.3665L11.3935 9.94213C11.5977 9.73744 11.6448 9.42389 11.5096 9.16875Z" fill="white"/>
</svg>
